<svg xmlns="http://www.w3.org/2000/svg" width="215" height="60" fill="none"><g fill="#fff" clip-path="url(#a)"><path d="M25.84 0 0 14.92v29.83l25.84 14.91 25.82-14.91V14.92L25.84 0Zm18.17 40.33L25.84 50.82 7.66 40.33v-21L25.84 8.84l18.17 10.49v21Z"/><path d="m37.89 36.8-12.06 6.96-12.07-6.96V22.87l12.07-6.97 12.06 6.97-5.02 2.9-7.04-4.07-7.04 4.07v8.12l7.04 4.07 7.04-4.07 5.02 2.91ZM70.78 32.09v-.08a11.87 11.87 0 0 1 12-12 11.63 11.63 0 0 1 9.19 4l-3.31 3.53c-1.61-1.66-3.31-2.88-5.92-2.88-3.83 0-6.66 3.31-6.66 7.32v.09c0 4.09 2.83 7.35 6.87 7.35a8.11 8.11 0 0 0 6-2.83l3.18 3.14a12.05 12.05 0 0 1-21.29-7.58l-.06-.06ZM96.86 20.47h5.31v5.18c1.44-3.44 4.09-5.79 8.14-5.62v5.58h-.3c-4.62 0-7.84 3-7.84 9.09v8.75h-5.31V20.47ZM112.84 32.09v-.08a12.259 12.259 0 0 1 20.769-8.52 12.258 12.258 0 0 1 3.741 8.43v.09a11.992 11.992 0 0 1-3.627 8.6 12.005 12.005 0 0 1-8.693 3.4 11.888 11.888 0 0 1-12.19-11.92Zm19.24 0v-.08a7.118 7.118 0 0 0-7.05-7.41c-4.23 0-6.93 3.31-6.93 7.32v.09a7.093 7.093 0 0 0 1.948 5.154 7.072 7.072 0 0 0 5.052 2.196c4.28 0 6.98-3.31 6.98-7.27ZM142.66 20.47h5.29V24a8.328 8.328 0 0 1 7.19-4c5.18 0 8.18 3.48 8.18 8.79v14.67h-5.27V30.39c0-3.57-1.78-5.61-4.92-5.61-3.14 0-5.18 2.14-5.18 5.7v13h-5.31l.02-23.01ZM168.44 32.09v-.08a12.259 12.259 0 0 1 20.769-8.52 12.258 12.258 0 0 1 3.741 8.43v.09a11.992 11.992 0 0 1-3.627 8.6 11.995 11.995 0 0 1-8.693 3.4 11.888 11.888 0 0 1-12.19-11.92Zm19.24 0v-.08a7.118 7.118 0 0 0-7.05-7.41c-4.23 0-6.93 3.31-6.93 7.32v.09a7.093 7.093 0 0 0 1.948 5.154 7.083 7.083 0 0 0 5.052 2.196c4.25 0 6.98-3.31 6.98-7.27ZM196.43 40.45l2.35-3.57a13.001 13.001 0 0 0 7.53 2.83c2.27 0 3.57-1 3.57-2.48v-.09c0-1.78-2.43-2.39-5.13-3.22-3.4-1-7.19-2.35-7.19-6.7v-.09c0-4.4 3.62-7.05 8.19-7.05 3.003.056 5.929.961 8.44 2.61l-2.09 3.74a13.31 13.31 0 0 0-6.48-2.17c-2 0-3.22 1-3.22 2.26v.09c0 1.7 2.48 2.39 5.18 3.26 3.35 1.05 7.14 2.57 7.14 6.71v.08c0 4.84-3.75 7.23-8.54 7.23a15.86 15.86 0 0 1-9.75-3.44Z"/></g><defs><clipPath id="a"><path fill="#fff" d="M0 0h214.71v59.66H0z"/></clipPath></defs></svg>