<svg id="svg" version="1.1" xmlns="http://www.w3.org/2000/svg" xmlns:xlink="http://www.w3.org/1999/xlink" width="400" height="377.96143250688704" viewBox="0, 0, 400,377.96143250688704"><g id="svgg"><path id="path0" d="M10.083 18.399 C 9.767 18.714,9.744 109.734,10.059 110.555 C 10.261 111.080,11.517 111.153,20.267 111.153 L 30.246 111.153 30.246 74.858 L 30.246 38.563 90.743 38.563 L 151.241 38.563 151.140 28.450 L 151.040 18.336 80.688 18.241 C 41.994 18.188,10.222 18.259,10.083 18.399 M244.783 18.626 C 244.682 18.890,244.645 23.441,244.700 28.740 L 244.802 38.374 305.082 38.470 C 352.731 38.546,365.426 38.664,365.663 39.037 C 365.827 39.296,365.965 55.629,365.968 75.331 L 365.974 111.153 375.994 111.153 L 386.014 111.153 385.918 64.745 L 385.822 18.336 315.395 18.241 C 258.745 18.164,244.932 18.239,244.783 18.626 M151.607 182.042 L 151.607 252.552 198.110 252.552 L 244.612 252.552 244.612 243.478 L 244.612 234.405 208.318 234.405 L 172.023 234.405 172.023 172.968 L 172.023 111.531 161.815 111.531 L 151.607 111.531 151.607 182.042 M10.004 253.403 C 9.905 253.663,9.868 274.461,9.922 299.622 L 10.019 345.369 80.630 345.464 L 151.241 345.560 151.140 335.634 L 151.040 325.709 90.737 325.520 L 30.435 325.331 30.338 289.130 L 30.242 252.930 20.213 252.930 C 12.538 252.930,10.142 253.041,10.004 253.403 M365.881 289.130 L 365.784 325.331 305.293 325.520 L 244.802 325.709 244.701 335.633 L 244.600 345.558 315.306 345.558 L 386.011 345.558 386.011 299.244 L 386.011 252.930 375.994 252.930 L 365.977 252.930 365.881 289.130 " stroke="none" fill="#050505" fill-rule="evenodd"></path><path id="path1" d="M0.000 189.036 L 0.000 378.072 200.000 378.072 L 400.000 378.072 400.000 189.036 L 400.000 0.000 200.000 0.000 L 0.000 0.000 0.000 189.036 M151.009 17.999 C 151.534 18.201,151.607 19.507,151.607 28.774 L 151.607 39.319 91.306 39.319 L 31.006 39.319 30.909 75.331 L 30.813 111.342 20.178 111.442 L 9.543 111.543 9.314 110.686 C 8.658 108.241,9.067 18.567,9.735 18.178 C 10.454 17.759,149.923 17.582,151.009 17.999 M386.296 64.745 L 386.392 111.531 375.805 111.531 L 365.217 111.531 365.217 75.425 L 365.217 39.319 304.955 39.319 C 250.353 39.319,244.672 39.263,244.464 38.721 C 243.982 37.467,244.208 18.221,244.707 18.019 C 244.967 17.914,276.909 17.857,315.690 17.893 L 386.200 17.958 386.296 64.745 M172.181 111.005 C 172.723 111.212,172.779 116.994,172.779 172.630 L 172.779 234.026 208.891 234.026 L 245.004 234.026 244.903 243.573 L 244.802 253.119 198.110 253.119 L 151.418 253.119 151.321 182.420 C 151.267 143.535,151.305 111.508,151.403 111.248 C 151.593 110.749,170.926 110.523,172.181 111.005 M30.404 252.781 C 30.943 252.988,31.002 256.522,31.002 288.887 L 31.002 324.764 90.706 324.764 C 123.544 324.764,150.680 324.867,151.009 324.993 C 151.534 325.195,151.607 326.501,151.607 335.768 L 151.607 346.314 80.732 346.314 C 11.046 346.314,9.850 346.302,9.465 345.583 C 9.041 344.791,8.883 254.246,9.303 253.150 C 9.539 252.537,28.885 252.199,30.404 252.781 M386.389 299.434 L 386.389 346.316 315.406 346.220 L 244.423 346.125 244.323 335.754 C 244.245 327.709,244.329 325.315,244.701 325.079 C 244.964 324.912,272.188 324.773,305.198 324.769 L 365.217 324.764 365.217 288.910 C 365.217 269.190,365.331 252.943,365.469 252.804 C 365.608 252.665,370.372 252.552,376.055 252.552 L 386.389 252.552 386.389 299.434 " stroke="none" fill="#0000" fill-rule="evenodd"></path><path id="path2" d="M30.498 39.193 C 30.359 39.332,30.246 55.577,30.246 75.293 L 30.246 111.141 20.132 111.251 L 10.019 111.360 20.227 111.351 L 30.435 111.342 30.624 75.142 C 30.728 55.232,30.799 38.941,30.781 38.941 C 30.764 38.941,30.636 39.055,30.498 39.193 M365.399 75.236 C 365.399 95.095,365.445 103.218,365.501 93.289 C 365.557 83.360,365.557 67.112,365.501 57.183 C 365.445 47.254,365.399 55.378,365.399 75.236 M375.992 111.153 L 365.784 111.361 375.876 111.446 C 382.289 111.500,386.052 111.393,386.200 111.153 C 386.329 110.945,386.381 110.813,386.317 110.860 C 386.253 110.907,381.607 111.039,375.992 111.153 M190.643 234.310 C 200.572 234.366,216.819 234.366,226.749 234.310 C 236.678 234.254,228.554 234.208,208.696 234.208 C 188.837 234.208,180.714 234.254,190.643 234.310 M30.427 289.036 C 30.427 308.998,30.473 317.109,30.529 307.060 C 30.585 297.011,30.585 280.679,30.529 270.765 C 30.473 260.852,30.427 269.074,30.427 289.036 M365.399 289.225 C 365.399 309.083,365.445 317.207,365.501 307.278 C 365.557 297.349,365.557 281.101,365.501 271.172 C 365.445 261.243,365.399 269.367,365.399 289.225 M386.011 345.495 C 386.011 345.829,368.895 345.958,315.406 346.029 L 244.802 346.123 315.292 346.219 C 382.381 346.311,387.207 346.249,386.270 345.312 C 386.128 345.170,386.011 345.252,386.011 345.495 M45.274 346.219 C 64.664 346.273,96.394 346.273,115.784 346.219 C 135.175 346.165,119.310 346.121,80.529 346.121 C 41.749 346.121,25.884 346.165,45.274 346.219 " stroke="none" fill="#8c8c8c" fill-rule="evenodd"></path><path id="path3" d="M151.228 28.279 L 151.417 38.374 151.518 28.570 C 151.574 23.177,151.489 18.635,151.330 18.475 C 151.170 18.315,151.125 22.727,151.228 28.279 M386.011 64.575 L 386.200 110.964 386.296 64.860 C 386.349 39.502,386.264 18.627,386.107 18.470 C 385.951 18.313,385.907 39.060,386.011 64.575 M244.933 38.657 C 245.088 38.812,272.258 38.982,305.311 39.035 L 365.406 39.130 365.598 75.236 L 365.790 111.342 365.876 75.425 C 365.923 55.671,365.828 39.297,365.663 39.038 C 365.428 38.667,352.638 38.548,305.007 38.471 C 271.811 38.418,244.777 38.501,244.933 38.657 M30.246 38.847 C 30.246 39.103,71.623 39.102,129.301 38.843 C 141.257 38.790,123.861 38.705,90.643 38.655 C 57.424 38.604,30.246 38.691,30.246 38.847 M156.639 111.436 C 159.510 111.500,164.104 111.500,166.847 111.436 C 169.590 111.371,167.240 111.318,161.626 111.319 C 156.011 111.319,153.767 111.372,156.639 111.436 M172.114 172.873 C 172.064 206.716,172.150 234.405,172.306 234.405 C 172.563 234.405,172.561 192.150,172.303 133.459 C 172.249 121.295,172.164 139.031,172.114 172.873 M174.764 252.835 C 187.604 252.891,208.615 252.891,221.456 252.835 C 234.296 252.780,223.790 252.735,198.110 252.735 C 172.429 252.735,161.923 252.780,174.764 252.835 M365.688 288.941 L 365.595 325.142 305.315 325.142 C 272.161 325.142,244.956 325.269,244.860 325.425 C 244.764 325.581,271.895 325.665,305.153 325.612 C 352.950 325.536,365.659 325.417,365.800 325.045 C 365.899 324.786,365.935 308.412,365.880 288.658 L 365.781 252.741 365.688 288.941 M386.194 299.244 C 386.194 324.612,386.240 334.935,386.295 322.182 C 386.350 309.430,386.350 288.674,386.295 276.058 C 386.240 263.441,386.194 273.875,386.194 299.244 M90.737 325.518 L 151.040 325.709 151.238 335.539 L 151.437 345.369 151.522 335.709 C 151.584 328.602,151.487 325.929,151.153 325.595 C 150.803 325.246,136.936 325.163,90.567 325.235 L 30.435 325.327 90.737 325.518 M9.830 345.652 C 9.830 345.808,41.687 345.894,80.624 345.844 C 119.560 345.793,139.934 345.708,125.898 345.655 C 58.006 345.397,9.830 345.396,9.830 345.652 M279.868 345.841 C 299.362 345.895,331.262 345.895,350.756 345.841 C 370.250 345.787,354.301 345.743,315.312 345.743 C 276.323 345.743,260.373 345.787,279.868 345.841 " stroke="none" fill="#747474" fill-rule="evenodd"></path><path id="path4" d="M45.274 18.053 C 64.664 18.107,96.394 18.107,115.784 18.053 C 135.175 17.999,119.310 17.954,80.529 17.954 C 41.749 17.954,25.884 17.999,45.274 18.053 M280.027 18.053 C 299.401 18.107,331.215 18.107,350.726 18.053 C 370.237 17.999,354.386 17.954,315.501 17.954 C 276.616 17.954,260.653 17.999,280.027 18.053 M9.326 18.399 C 8.950 18.776,9.074 110.085,9.452 110.964 C 9.635 111.392,9.788 91.384,9.803 64.934 C 9.818 39.201,9.773 18.147,9.704 18.147 C 9.635 18.147,9.464 18.261,9.326 18.399 M244.400 28.355 C 244.400 34.074,244.453 36.413,244.517 33.554 C 244.581 30.695,244.581 26.016,244.517 23.157 C 244.453 20.298,244.400 22.637,244.400 28.355 M30.801 39.414 C 30.500 40.219,30.417 111.470,30.718 111.284 C 30.874 111.187,31.002 94.956,31.002 75.215 L 31.002 39.322 91.399 39.225 L 151.796 39.128 91.387 39.035 C 43.338 38.960,30.942 39.038,30.801 39.414 M274.793 39.225 C 291.497 39.279,318.718 39.279,335.285 39.225 C 351.852 39.170,338.185 39.126,304.915 39.126 C 271.645 39.126,258.090 39.170,274.793 39.225 M151.403 111.248 C 151.305 111.508,151.267 143.535,151.321 182.420 L 151.418 253.119 198.110 253.119 L 244.802 253.119 244.812 243.478 L 244.822 233.837 244.711 243.384 L 244.599 252.930 198.103 252.930 L 151.607 252.930 151.607 182.048 L 151.607 111.165 161.909 111.058 L 172.212 110.951 161.897 110.863 C 153.928 110.795,151.542 110.882,151.403 111.248 M172.585 172.590 C 172.585 206.484,172.630 220.294,172.684 203.278 C 172.739 186.263,172.739 158.531,172.684 141.653 C 172.630 124.774,172.585 138.696,172.585 172.590 M9.303 253.150 C 8.810 254.434,9.048 345.000,9.546 345.681 C 9.925 346.200,10.000 337.063,9.921 299.635 L 9.824 252.942 20.129 252.835 L 30.435 252.728 19.984 252.640 C 10.750 252.562,9.506 252.622,9.303 253.150 M365.464 252.836 C 365.368 252.991,368.462 253.076,372.342 253.022 C 385.370 252.844,386.651 252.711,376.109 252.631 C 370.351 252.588,365.561 252.680,365.464 252.836 M30.716 288.941 L 30.624 325.142 90.832 325.048 L 151.040 324.955 91.023 324.858 L 31.006 324.761 30.907 288.751 L 30.809 252.741 30.716 288.941 M274.953 325.047 C 291.536 325.102,318.672 325.102,335.255 325.047 C 351.838 324.993,338.270 324.948,305.104 324.948 C 271.938 324.948,258.370 324.993,274.953 325.047 M244.314 335.422 C 244.270 341.180,244.362 345.970,244.518 346.067 C 244.674 346.164,244.758 343.069,244.705 339.189 C 244.526 326.162,244.393 324.880,244.314 335.422 " stroke="none" fill="#dcdcdc" fill-rule="evenodd"></path></g></svg>