<svg xmlns="http://www.w3.org/2000/svg" width="160" height="40" fill="#fff"><path d="M67.019 20.002c0 .747-.078 1.464-.232 2.15a8.572 8.572 0 0 1-.674 1.907 7.93 7.93 0 0 1-1.056 1.64 7.654 7.654 0 0 1-1.428 1.307l4.26 4.622h-2.577c-.371 0-.708-.05-1.01-.15a1.97 1.97 0 0 1-.812-.555l-2.462-2.704a8.966 8.966 0 0 1-1.218.243c-.41.054-.84.08-1.289.08-1.27 0-2.43-.211-3.483-.635a8.03 8.03 0 0 1-2.693-1.791 8.071 8.071 0 0 1-1.73-2.705c-.41-1.047-.615-2.184-.615-3.409 0-1.225.205-2.358.615-3.398a8.045 8.045 0 0 1 1.73-2.716 7.888 7.888 0 0 1 2.693-1.78c1.053-.43 2.214-.647 3.483-.647 1.27 0 2.426.216 3.471.648a7.905 7.905 0 0 1 2.682 1.79 7.921 7.921 0 0 1 1.73 2.705c.41 1.04.615 2.173.615 3.398Zm-3.204 0c0-.917-.124-1.737-.372-2.462-.24-.732-.588-1.352-1.045-1.86a4.512 4.512 0 0 0-1.671-1.168c-.65-.27-1.386-.404-2.206-.404-.82 0-1.56.135-2.217.404a4.618 4.618 0 0 0-1.684 1.168c-.456.508-.808 1.128-1.056 1.86-.248.725-.371 1.545-.371 2.462 0 .917.123 1.741.371 2.473.248.724.6 1.34 1.056 1.85.465.5 1.026.885 1.684 1.155.657.27 1.397.405 2.217.405.82 0 1.556-.135 2.206-.405a4.578 4.578 0 0 0 1.671-1.156c.457-.508.805-1.125 1.045-1.849.248-.732.372-1.556.372-2.473ZM71.02 16.5v7.535c0 .725.166 1.287.499 1.688.34.393.847.59 1.52.59.496 0 .96-.109 1.393-.324a4.991 4.991 0 0 0 1.23-.913V16.5h2.868v11.858h-1.753c-.371 0-.615-.174-.731-.52l-.197-.948a8.997 8.997 0 0 1-.767.682 4.99 4.99 0 0 1-.847.52 4.56 4.56 0 0 1-.963.324c-.341.084-.709.127-1.103.127-.65 0-1.227-.108-1.73-.324a3.521 3.521 0 0 1-1.254-.936c-.34-.4-.6-.875-.778-1.422a6.2 6.2 0 0 1-.255-1.826V16.5h2.867ZM83.716 16.5v11.858H80.85V16.5h2.867Zm.43-3.455c0 .246-.05.477-.151.693-.1.216-.236.405-.406.566a1.927 1.927 0 0 1-.58.393 1.872 1.872 0 0 1-.72.14c-.248 0-.484-.047-.709-.14a1.96 1.96 0 0 1-.964-.96 1.734 1.734 0 0 1-.139-.692c0-.255.047-.493.14-.717.1-.223.232-.416.394-.578.163-.162.353-.289.57-.381.224-.1.46-.15.707-.15.256 0 .496.05.72.15.225.092.418.22.58.381.17.162.306.355.407.578.1.224.15.463.15.717ZM94.408 19.008c-.085.108-.17.193-.256.254-.077.062-.193.093-.348.093a.816.816 0 0 1-.43-.127 7.636 7.636 0 0 0-.499-.3 3.251 3.251 0 0 0-.696-.301c-.263-.093-.592-.139-.987-.139-.503 0-.944.093-1.323.277-.38.178-.697.436-.952.775a3.57 3.57 0 0 0-.558 1.236 6.513 6.513 0 0 0-.185 1.63c0 .632.066 1.194.197 1.687.14.493.337.91.592 1.248.256.332.565.586.929.763.364.17.774.254 1.23.254.457 0 .825-.053 1.103-.161.287-.116.527-.24.72-.37.194-.139.36-.262.5-.37a.77.77 0 0 1 .487-.173c.232 0 .406.088.522.265l.825 1.04c-.318.37-.662.683-1.034.937a5.93 5.93 0 0 1-1.16.6 6 6 0 0 1-1.231.313 8.812 8.812 0 0 1-1.266.092 5.37 5.37 0 0 1-2.078-.404 4.975 4.975 0 0 1-1.706-1.202c-.48-.524-.863-1.164-1.15-1.919-.278-.762-.417-1.63-.417-2.6 0-.87.124-1.676.371-2.415a5.482 5.482 0 0 1 1.115-1.93 5.049 5.049 0 0 1 1.81-1.283c.72-.308 1.549-.463 2.485-.463.89 0 1.668.143 2.333.428a5.698 5.698 0 0 1 1.811 1.225l-.754 1.04ZM99.076 11.184v9.835h.534c.194 0 .344-.027.453-.08a1.18 1.18 0 0 0 .348-.301l2.96-3.64c.132-.155.271-.274.418-.359.147-.092.341-.139.581-.139h2.623l-3.703 4.404a5.715 5.715 0 0 1-.406.45c-.14.131-.29.247-.453.347.163.116.306.25.43.404.123.154.247.32.371.497l3.97 5.756h-2.588c-.225 0-.415-.039-.569-.116a1.113 1.113 0 0 1-.418-.393l-3.03-4.495c-.116-.178-.232-.293-.348-.347-.117-.054-.29-.081-.523-.081h-.65v5.432h-2.867V11.184h2.867ZM109.855 11.646c.139 0 .256.008.348.023.093.008.175.031.244.07a.66.66 0 0 1 .221.15c.069.062.147.146.232.254l8.811 11.176c-.031-.27-.054-.532-.069-.786a23.97 23.97 0 0 1-.012-.728V11.646h2.751v16.712h-1.613a1.44 1.44 0 0 1-.616-.116c-.162-.077-.321-.216-.476-.416l-8.776-11.13c.023.247.039.494.046.74.016.24.024.459.024.66v10.262h-2.752V11.646h1.637ZM129.761 16.315c.89 0 1.695.143 2.415.428.727.285 1.347.69 1.857 1.213a5.356 5.356 0 0 1 1.184 1.919c.279.755.418 1.599.418 2.53 0 .94-.139 1.788-.418 2.543a5.474 5.474 0 0 1-1.184 1.93c-.51.532-1.13.94-1.857 1.226-.72.285-1.525.427-2.415.427-.89 0-1.699-.142-2.426-.427a5.25 5.25 0 0 1-1.869-1.226 5.633 5.633 0 0 1-1.196-1.93c-.278-.755-.418-1.602-.418-2.542 0-.932.14-1.776.418-2.531.287-.755.685-1.395 1.196-1.919a5.325 5.325 0 0 1 1.869-1.213c.727-.285 1.536-.428 2.426-.428Zm0 10.02c.991 0 1.722-.331 2.194-.994.48-.662.72-1.633.72-2.912s-.24-2.254-.72-2.924c-.472-.67-1.203-1.005-2.194-1.005-1.006 0-1.749.339-2.229 1.017-.479.67-.719 1.64-.719 2.912 0 1.271.24 2.242.719 2.912.48.663 1.223.994 2.229.994ZM145.326 28.358c-.372 0-.616-.174-.732-.52l-.232-1.144a7.12 7.12 0 0 1-.778.75 4.844 4.844 0 0 1-.882.579 4.26 4.26 0 0 1-1.01.37 4.612 4.612 0 0 1-1.161.138c-.65 0-1.246-.135-1.788-.404a4.054 4.054 0 0 1-1.404-1.168c-.387-.516-.689-1.151-.906-1.907-.209-.755-.313-1.617-.313-2.588 0-.879.12-1.695.36-2.45.24-.755.584-1.41 1.033-1.965a4.762 4.762 0 0 1 1.613-1.294c.627-.316 1.332-.474 2.113-.474.666 0 1.235.108 1.707.323.472.208.894.49 1.265.844v-6.264h2.868v17.174h-1.753Zm-3.82-2.092c.596 0 1.103-.123 1.521-.37.418-.246.813-.597 1.184-1.052v-5.316c-.325-.393-.681-.67-1.068-.832a3.1 3.1 0 0 0-1.23-.243c-.434 0-.828.081-1.184.243a2.33 2.33 0 0 0-.894.74c-.24.323-.426.74-.558 1.248-.131.5-.197 1.094-.197 1.78 0 .693.054 1.283.163 1.768.116.478.278.87.487 1.179.209.3.464.52.766.659.302.13.639.196 1.01.196ZM154.179 16.315c.751 0 1.439.12 2.066.359.635.239 1.181.589 1.637 1.051a4.696 4.696 0 0 1 1.068 1.688c.256.662.383 1.421.383 2.276 0 .216-.011.397-.034.544a.789.789 0 0 1-.105.335.43.43 0 0 1-.197.173.97.97 0 0 1-.325.046h-7.36c.085 1.218.414 2.111.986 2.682.573.57 1.331.855 2.276.855.464 0 .863-.054 1.195-.162a5.36 5.36 0 0 0 .883-.358c.255-.131.476-.25.661-.359a1.15 1.15 0 0 1 .558-.161.62.62 0 0 1 .301.069.659.659 0 0 1 .221.196l.836 1.04c-.317.37-.673.683-1.068.937a6.376 6.376 0 0 1-1.242.6 6.92 6.92 0 0 1-1.312.313 9.303 9.303 0 0 1-1.289.092 6.47 6.47 0 0 1-2.31-.404 5.274 5.274 0 0 1-1.857-1.214c-.527-.54-.941-1.202-1.243-1.988-.301-.793-.452-1.71-.452-2.75 0-.81.131-1.568.394-2.277a5.466 5.466 0 0 1 1.127-1.86 5.363 5.363 0 0 1 1.799-1.26c.712-.308 1.513-.463 2.403-.463Zm.058 2.046c-.836 0-1.49.235-1.962.705s-.774 1.136-.905 2h5.386c0-.37-.05-.717-.151-1.04-.1-.332-.255-.621-.464-.868a2.136 2.136 0 0 0-.79-.578c-.317-.146-.688-.219-1.114-.219Z"/><g clip-path="url(#a)"><path fill="#00A4D6" fill-rule="evenodd" d="M20 32.5a12.46 12.46 0 0 0 8.728-3.551c.061-.06.16-.06.221 0l5.193 5.193 5.39 5.39c.117.117-.003.31-.16.259l-8.602-2.868a.157.157 0 0 0-.133.017A19.907 19.907 0 0 1 20 40C8.954 40 0 31.046 0 20S8.954 0 20 0s20 8.954 20 20c0 4.718-1.633 9.054-4.366 12.474a.155.155 0 0 1-.23.012l-10.561-10.56c-.117-.116.003-.31.16-.258l6.71 2.236a.155.155 0 0 0 .197-.099c.383-1.2.59-2.478.59-3.805 0-6.904-5.596-12.5-12.5-12.5S7.5 13.096 7.5 20 13.096 32.5 20 32.5Z" clip-rule="evenodd"/></g><defs><clipPath id="a"><path d="M0 0h40v40H0z"/></clipPath></defs></svg>