<svg xmlns="http://www.w3.org/2000/svg" xmlns:xlink="http://www.w3.org/1999/xlink" viewBox="0 0 500 500"><defs><clipPath id="freepik--clip-path--inject-20"><path d="M446.54,206.92a349.94,349.94,0,0,0-8.34-42.47c-11.05-40.2-36.11-79.91-83.55-90.55-35-7.85-74.22,2-106.09,25.13-50,36.32-88,83.76-142.08,116-45.19,26.9-70.83,67.07-60.42,120.61S102.74,417.57,156.3,410c44.55-6.32,90.59-6.07,127.39,10.82,32.88,15.09,94.5-4.27,148.17-55.49,31.25-29.83,31.13-65,24.16-97.39C451.73,247.92,449.5,227.31,446.54,206.92Z" style="fill:none"></path></clipPath></defs><g id="freepik--background-simple--inject-20"><path d="M446.54,206.92a349.94,349.94,0,0,0-8.34-42.47c-11.05-40.2-36.11-79.91-83.55-90.55-35-7.85-74.22,2-106.09,25.13-50,36.32-88,83.76-142.08,116-45.19,26.9-70.83,67.07-60.42,120.61S102.74,417.57,156.3,410c44.55-6.32,90.59-6.07,127.39,10.82,32.88,15.09,94.5-4.27,148.17-55.49,31.25-29.83,31.13-65,24.16-97.39C451.73,247.92,449.5,227.31,446.54,206.92Z" style="fill:#FFC100"></path><path d="M446.54,206.92a349.94,349.94,0,0,0-8.34-42.47c-11.05-40.2-36.11-79.91-83.55-90.55-35-7.85-74.22,2-106.09,25.13-50,36.32-88,83.76-142.08,116-45.19,26.9-70.83,67.07-60.42,120.61S102.74,417.57,156.3,410c44.55-6.32,90.59-6.07,127.39,10.82,32.88,15.09,94.5-4.27,148.17-55.49,31.25-29.83,31.13-65,24.16-97.39C451.73,247.92,449.5,227.31,446.54,206.92Z" style="fill:#fff;opacity:0.7000000000000001"></path></g><g id="freepik--Trees--inject-20"><g style="clip-path:url(#freepik--clip-path--inject-20)"><path d="M235.69,431.42h5.59c5.12-3.87,10.17-13.11,10.17-13.11l-4.18,13.11H445.86c-3.78-12.73-13.2-44.69-11-40.25,2.73,5.54,5.6,7.89,7.62,2.75s-19.55-47.36-19.55-47.36,13.2,12.52,12,4.51-24.61-68.92-24.61-68.92,7.86,13.29,7.55,3.4-14-50.09-14-50.09,8.79,4.18,8.14-2.47c-1.1-11.36-5.14-23-8.14-34-1.67-6.12-3.14-12.5-5.44-18.43-.42-1.1-1-4.58-2-5.26-1.81-1.2-3.78.33-5.74,3.33-5.56,8.54-11,29-12.16,32.58-.9,2.72-11,28.21-8.14,30,2.47,1.56,10.69-8.13,10.69-8.13s-18.94,50.7-19.33,54.61S375,280.56,375,280.56s-7.34,17.5-13.66,34.94c-1-9-10.67-37.43-10.67-37.43s6.74,3.2,6.25-1.89c-.85-8.72-4-17.66-6.25-26.07A147.16,147.16,0,0,0,346.49,236c-.33-.84-.74-3.51-1.53-4-1.39-.92-2.91.25-4.41,2.56-4.26,6.55-8.42,22.25-9.33,25-.69,2.08-8.47,21.64-6.25,23.05,1.9,1.2,8.2-6.23,8.2-6.23s-14.52,38.9-14.83,41.9,10.15-5.54,10.15-5.54-3.76,9-7.78,19.55c-6.22-16.84-12.49-33.14-12.49-33.14s7.86,13.3,7.55,3.4-14-50.09-14-50.09,8.79,4.18,8.14-2.46c-1.1-11.37-5.14-23-8.14-34-1.67-6.13-3.14-12.51-5.44-18.44-.42-1.1-1-4.58-2-5.26-1.81-1.2-3.78.33-5.74,3.34-5.56,8.54-11,29-12.16,32.57-.9,2.72-11,28.22-8.14,30.05,2.47,1.57,10.69-8.13,10.69-8.13S260,300.8,259.64,304.7s13.22-7.21,13.22-7.21S244.28,365.63,251.37,367c5.8,1.12,9.26-5,10.33-7.3C258.49,367.1,235.11,421.38,235.69,431.42ZM360,319.19l-1.13,3.25c-1.94-5.11-3.26-8.54-3.26-8.54S358.3,318.41,360,319.19Z" style="fill:#FFC100"></path><path d="M89.73,395.46c5.79,1.13,9.25-5,10.32-7.29-1.89,4.35-10.78,25-17.65,43.25H230.23c-4.31-10.88-12.56-27-12.56-27s10.14,9.6,9.24,3.46S208,355,208,355s6,10.2,5.79,2.6-10.75-38.43-10.75-38.43,6.74,3.21,6.25-1.89c-.85-8.72-4-17.66-6.25-26.07a147,147,0,0,0-4.18-14.14c-.32-.85-.73-3.52-1.52-4-1.39-.92-2.91.25-4.41,2.56-4.26,6.55-8.42,22.25-9.33,25-.69,2.09-8.47,21.65-6.25,23.05,1.9,1.2,8.2-6.23,8.2-6.23s-14.52,38.9-14.83,41.9,10.15-5.54,10.15-5.54-7.46,17.8-12.6,32.83c-6.53-19.56-21.73-59-21.73-59s7.87,13.29,7.55,3.4-14-50.09-14-50.09,8.78,4.18,8.14-2.47c-1.11-11.36-5.15-23-8.15-34-1.67-6.12-3.14-12.5-5.43-18.43-.43-1.1-1-4.58-2-5.26-1.81-1.2-3.79.33-5.74,3.33-5.56,8.54-11,29-12.17,32.58-.9,2.72-11,28.21-8.14,30.05,2.48,1.56,10.69-8.13,10.69-8.13S98.39,329.25,98,333.16,111.22,326,111.22,326,82.63,394.09,89.73,395.46Zm82.6,6.05c-.59,1.36-2.07,4.79-4,9.33-.6-1.28-1.19-2.54-1.78-3.77C169.72,406.39,171.65,403,172.33,401.51Zm-7.25-4.66c-.48,1.76-.87,3.37-1.14,4.77-2.76-5.68-4.8-9.67-4.8-9.67A61.18,61.18,0,0,0,165.08,396.85Z" style="fill:#FFC100"></path><path d="M89.73,395.46c5.79,1.13,9.25-5,10.32-7.29-1.89,4.35-10.78,25-17.65,43.25H230.23c-4.31-10.88-12.56-27-12.56-27s10.14,9.6,9.24,3.46S208,355,208,355s6,10.2,5.79,2.6-10.75-38.43-10.75-38.43,6.74,3.21,6.25-1.89c-.85-8.72-4-17.66-6.25-26.07a147,147,0,0,0-4.18-14.14c-.32-.85-.73-3.52-1.52-4-1.39-.92-2.91.25-4.41,2.56-4.26,6.55-8.42,22.25-9.33,25-.69,2.09-8.47,21.65-6.25,23.05,1.9,1.2,8.2-6.23,8.2-6.23s-14.52,38.9-14.83,41.9,10.15-5.54,10.15-5.54-7.46,17.8-12.6,32.83c-6.53-19.56-21.73-59-21.73-59s7.87,13.29,7.55,3.4-14-50.09-14-50.09,8.78,4.18,8.14-2.47c-1.11-11.36-5.15-23-8.15-34-1.67-6.12-3.14-12.5-5.43-18.43-.43-1.1-1-4.58-2-5.26-1.81-1.2-3.79.33-5.74,3.33-5.56,8.54-11,29-12.17,32.58-.9,2.72-11,28.21-8.14,30.05,2.48,1.56,10.69-8.13,10.69-8.13S98.39,329.25,98,333.16,111.22,326,111.22,326,82.63,394.09,89.73,395.46Zm82.6,6.05c-.59,1.36-2.07,4.79-4,9.33-.6-1.28-1.19-2.54-1.78-3.77C169.72,406.39,171.65,403,172.33,401.51Zm-7.25-4.66c-.48,1.76-.87,3.37-1.14,4.77-2.76-5.68-4.8-9.67-4.8-9.67A61.18,61.18,0,0,0,165.08,396.85Z" style="fill:#fff;opacity:0.5"></path><path d="M235.69,431.42h5.59c5.12-3.87,10.17-13.11,10.17-13.11l-4.18,13.11H445.86c-3.78-12.73-13.2-44.69-11-40.25,2.73,5.54,5.6,7.89,7.62,2.75s-19.55-47.36-19.55-47.36,13.2,12.52,12,4.51-24.61-68.92-24.61-68.92,7.86,13.29,7.55,3.4-14-50.09-14-50.09,8.79,4.18,8.14-2.47c-1.1-11.36-5.14-23-8.14-34-1.67-6.12-3.14-12.5-5.44-18.43-.42-1.1-1-4.58-2-5.26-1.81-1.2-3.78.33-5.74,3.33-5.56,8.54-11,29-12.16,32.58-.9,2.72-11,28.21-8.14,30,2.47,1.56,10.69-8.13,10.69-8.13s-18.94,50.7-19.33,54.61S375,280.56,375,280.56s-7.34,17.5-13.66,34.94c-1-9-10.67-37.43-10.67-37.43s6.74,3.2,6.25-1.89c-.85-8.72-4-17.66-6.25-26.07A147.16,147.16,0,0,0,346.49,236c-.33-.84-.74-3.51-1.53-4-1.39-.92-2.91.25-4.41,2.56-4.26,6.55-8.42,22.25-9.33,25-.69,2.08-8.47,21.64-6.25,23.05,1.9,1.2,8.2-6.23,8.2-6.23s-14.52,38.9-14.83,41.9,10.15-5.54,10.15-5.54-3.76,9-7.78,19.55c-6.22-16.84-12.49-33.14-12.49-33.14s7.86,13.3,7.55,3.4-14-50.09-14-50.09,8.79,4.18,8.14-2.46c-1.1-11.37-5.14-23-8.14-34-1.67-6.13-3.14-12.51-5.44-18.44-.42-1.1-1-4.58-2-5.26-1.81-1.2-3.78.33-5.74,3.34-5.56,8.54-11,29-12.16,32.57-.9,2.72-11,28.22-8.14,30.05,2.47,1.57,10.69-8.13,10.69-8.13S260,300.8,259.64,304.7s13.22-7.21,13.22-7.21S244.28,365.63,251.37,367c5.8,1.12,9.26-5,10.33-7.3C258.49,367.1,235.11,421.38,235.69,431.42ZM360,319.19l-1.13,3.25c-1.94-5.11-3.26-8.54-3.26-8.54S358.3,318.41,360,319.19Z" style="fill:#fff;opacity:0.5"></path></g></g><g id="freepik--roller-coaster--inject-20"><g style="clip-path:url(#freepik--clip-path--inject-20)"><path d="M403.06,324.86c-.06,36-.06,71-.06,106.54" style="fill:none;stroke:#263238;stroke-miterlimit:10;stroke-width:2px"></path><path d="M351.23,291.47c-.23,46.43-.23,93.43,0,139.54" style="fill:none;stroke:#263238;stroke-miterlimit:10;stroke-width:2px"></path><path d="M294.74,309.09c.26,40.81.26,80.81,0,121.75" style="fill:none;stroke:#263238;stroke-miterlimit:10;stroke-width:2px"></path><path d="M238.25,331.38C238,363.9,238,397.9,238.17,431" style="fill:none;stroke:#263238;stroke-miterlimit:10;stroke-width:2px"></path><path d="M181.75,320.5c.25,37.4.25,73.4,0,110.56" style="fill:none;stroke:#263238;stroke-miterlimit:10;stroke-width:2px"></path><path d="M125.26,264c-.26,55.9-.26,110.9,0,167" style="fill:none;stroke:#263238;stroke-miterlimit:10;stroke-width:2px"></path><path d="M371.45,161.9c1.55,90,1.55,179,0,269.36" style="fill:none;stroke:#263238;stroke-miterlimit:10;stroke-width:2px"></path><path d="M319.62,142.21c.38,95.69.38,192.69,0,289" style="fill:none;stroke:#263238;stroke-miterlimit:10;stroke-width:2px"></path><path d="M263.12,182.12q-.18,124.17,0,249" style="fill:none;stroke:#263238;stroke-miterlimit:10;stroke-width:2px"></path><path d="M206.63,245.86c.37,62,.37,123,0,185.07" style="fill:none;stroke:#263238;stroke-miterlimit:10;stroke-width:2px"></path><path d="M150.14,286.29c-.14,47.61-.14,96.61,0,144.7" style="fill:none;stroke:#263238;stroke-miterlimit:10;stroke-width:2px"></path><path d="M406.07,329.71l2.68-3h0l.59-.65q10.67,9.66,20.83,19.82c6.8,6.76,13.45,13.61,20,20.69l-.65.59-1.75-1.89-.07.07-.2,3.67-.85.78.21-3.67-2,1.87,1.72,1.86-.65.59c-6.4-7-13.05-13.79-19.77-20.48s-13.61-13.26-20.63-19.64l.59-.65Zm39.29,33.22-.17,3.67,2-1.87-1.76-1.88Zm-2.83,2.66,1.75,1.86.07-.06.17-3.68Zm.51-5.1-.14,3.67,2-1.88-1.77-1.87Zm-2.81,2.68L442,365l.07-.07.15-3.67Zm.49-5.11-.13,3.68,2-1.9L440.8,358Zm-2.8,2.69,1.77,1.85.07-.07.13-3.67Zm.46-5.1-.11,3.67,2-1.91-1.79-1.84Zm-2.78,2.7,1.77,1.84.07-.07.12-3.67Zm.43-5.11-.09,3.68,2-1.92-1.8-1.84ZM433.26,356l1.79,1.83.07-.07.09-3.68Zm.41-5.11-.07,3.68,2-1.93-1.8-1.83Zm-2.75,2.73,1.79,1.82.07-.07.08-3.67Zm.38-5.11-.06,3.68,2-1.95-1.81-1.82Zm-2.74,2.74,1.81,1.81.06-.07.06-3.67Zm.36-5.11,0,3.67,1.95-1.95L429,346Zm-2.72,2.75,1.81,1.8.06-.06,0-3.68Zm.33-5.11,0,3.68,1.94-2-1.82-1.8Zm-2.71,2.76,1.82,1.79.06-.06,0-3.67Zm.31-5.11v3.68l1.93-2-1.84-1.8Zm-2.7,2.77,1.83,1.79.05-.06,0-3.68Zm.28-5.11v3.68l1.93-2L421.8,339ZM419,341.84l1.84,1.77.05-.06v-3.67Zm.25-5.11,0,3.68,1.92-2-1.86-1.78Zm-2.66,2.8,1.84,1.76.06-.06,0-3.67Zm.22-5.12.05,3.69,1.91-2-1.87-1.77Zm-2.65,2.81,1.86,1.76.05-.05,0-3.68Zm.2-5.1.07,3.68,1.89-2L414.48,332Zm-2.63,2.82,1.86,1.75.05-.06L413.6,333Zm.16-5.11.09,3.68,1.89-2L412,329.74Zm-2.61,2.84,1.87,1.74.05-.06-.09-3.67Zm.12-5.3.12,3.87,1.87-2Zm-.1-.08h0Zm-2.68,2.95,2.08,1.9,0-.05-.12-4.06Z" style="fill:#0b0b0b"></path><path d="M360.79,295.81l1.8-3.56h0l.39-.79A117.75,117.75,0,0,1,375.56,299c4,2.7,7.92,5.58,11.73,8.53,7.62,5.91,14.9,12.18,22,18.61l-.59.66-1.91-1.72-.07.07.14,3.68-.77.85L406,326l-1.82,2,1.89,1.7-.59.65c-7-6.35-14.22-12.54-21.68-18.32-3.73-2.89-7.52-5.7-11.42-8.3a112.49,112.49,0,0,0-12-7.16l.39-.79Zm43.43,27.09.17,3.67,1.83-2-1.93-1.71Zm-2.57,2.91,1.91,1.7.07-.08-.17-3.67Zm.05-5.13.19,3.68,1.81-2.06-1.93-1.7Zm-2.55,2.93,1.91,1.68.07-.07-.19-3.68Zm0-5.13.23,3.67,1.8-2.07-2-1.68Zm-2.52,2.95,1.93,1.66.07-.07-.22-3.66Zm0-5.13.25,3.68,1.78-2.1c-.65-.56-1.3-1.12-2-1.66Zm-2.5,3c.65.54,1.3,1.1,1.94,1.65l.06-.07-.24-3.67Zm-.09-5.12.28,3.67,1.77-2.11-2-1.65Zm-2.47,3,2,1.63.06-.07-.28-3.67Zm-.15-5.12.33,3.66,1.75-2.13-2-1.62Zm-2.43,3,2,1.61.06-.07-.33-3.66Zm-.2-5.12c.14,1.21.25,2.45.36,3.67l1.73-2.15c-.67-.54-1.33-1.09-2-1.61Zm-2.4,3c.67.52,1.33,1.06,2,1.59l.05-.07c-.11-1.21-.21-2.45-.35-3.66Zm-.26-5.11.41,3.66,1.7-2.17-2-1.59Zm-2.36,3.06,2,1.57.06-.07-.4-3.65Zm-.33-5.1.46,3.64,1.68-2.19-2.07-1.55Zm-2.32,3.09,2,1.53,0-.07-.45-3.63Zm-.39-5.11c.19,1.21.34,2.45.5,3.66l1.65-2.22c-.7-.51-1.37-1-2.08-1.54Zm-2.28,3.13c.7.49,1.36,1,2,1.51l.05-.06c-.15-1.21-.3-2.44-.49-3.65Zm-.48-5.09.57,3.64,1.61-2.24-2.11-1.5ZM375.7,305l2.07,1.48,0-.07-.55-3.63Zm-.57-5.07.64,3.61,1.58-2.27-2.15-1.45Zm-2.16,3.2,2.1,1.42,0-.06-.62-3.61ZM372.3,298c.26,1.19.49,2.4.7,3.61l1.54-2.3c-.71-.49-1.44-1-2.17-1.42Zm-2.09,3.25c.72.44,1.42.91,2.11,1.38l.05-.06c-.21-1.21-.44-2.42-.69-3.61Zm-.79-5.07c.28,1.21.54,2.42.79,3.62l1.48-2.34-2.2-1.39Zm-2,3.3,2.13,1.35,0-.06c-.24-1.19-.49-2.4-.76-3.61Zm-.94-5c.32,1.21.62,2.4.9,3.58l1.42-2.38-2.25-1.31Zm-1.9,3.36,2.17,1.27,0-.06c-.28-1.18-.57-2.37-.88-3.57Zm-1.16-5.17c.39,1.25.75,2.48,1.08,3.72l1.35-2.43Zm-.12-.05h0Zm-1.83,3.53,2.44,1.3,0-.06c-.34-1.29-.71-2.57-1.1-3.88Z" style="fill:#0b0b0b"></path><path d="M308.18,302l-1.73-3.6h0l-.38-.79c8.66-4.13,17.55-8.19,27.35-10.33a43.55,43.55,0,0,1,15.23-.78l1.92.38a16.42,16.42,0,0,1,1.9.43l1.84.56.92.28c.3.1.59.23.89.34a68.93,68.93,0,0,1,6.85,3l-.4.79c-.76-.42-1.58-.76-2.37-1.14l-.05.1c.42,1.18.84,2.29,1.18,3.49l-.51,1c-.34-1.19-.74-2.3-1.15-3.47l-1.15,2.49c.75.36,1.51.67,2.24,1.07l-.4.78a43.28,43.28,0,0,0-12.55-4.44,37.88,37.88,0,0,0-13.2.72c-8.89,1.92-17.53,5.81-26.05,9.88l-.38-.79ZM357,289.87c.5,1.14,1,2.26,1.36,3.43l1.12-2.5c-.79-.39-1.61-.71-2.44-1Zm-1.43,3.62c.77.29,1.53.58,2.28.95l0-.09c-.39-1.17-.83-2.28-1.31-3.41Zm-1.86-4.79c.3.55.58,1.1.85,1.64s.51,1.14.75,1.7l1-2.57L355,289l-1.29-.39Zm-1.15,3.71,1.16.35,1.15.45,0-.09c-.23-.56-.46-1.13-.71-1.7s-.53-1.07-.82-1.62Zm-2.27-4.59c.36.51.7,1,1,1.54s.6,1.1.88,1.64l.76-2.64c-.43-.13-.86-.27-1.3-.38l-1.34-.27Zm-.78,3.8,1.17.23c.39.1.78.23,1.16.34l0-.09c-.27-.54-.54-1.09-.84-1.62s-.63-1-1-1.54Zm-2.73-4.32a23.54,23.54,0,0,1,2.23,2.95l.48-2.7a16.52,16.52,0,0,0-2.7-.36Zm-.36,3.86a15.7,15.7,0,0,1,2.37.32l0-.1a23.45,23.45,0,0,0-2.14-2.94Zm-3.17-4a25.56,25.56,0,0,1,2.51,2.7l.19-2.74a22.14,22.14,0,0,0-2.7-.08Zm0,3.87a19.35,19.35,0,0,1,2.41.07V291a26,26,0,0,0-2.44-2.71Zm-3.52-3.71a34,34,0,0,1,2.74,2.48L342.4,287a26.41,26.41,0,0,0-2.68.17Zm.34,3.87a22,22,0,0,1,2.43-.16v-.09a29.8,29.8,0,0,0-2.67-2.47Zm-3.8-3.43c1,.75,2,1.43,2.92,2.26l-.3-2.74c-.89.05-1.76.24-2.64.37Zm.62,3.83c.81-.12,1.62-.3,2.43-.34v-.09a35.06,35.06,0,0,0-2.86-2.26Zm-4-3.16c1.05.67,2.07,1.31,3.06,2.06l-.49-2.71c-.88.12-1.73.34-2.6.53Zm.85,3.78c.81-.18,1.61-.4,2.42-.5v-.09c-1-.76-2-1.4-3-2.07Zm-4.19-2.94c1.08.61,2.13,1.22,3.16,1.91l-.64-2.69c-.87.18-1.71.42-2.55.67Zm1,3.73c.8-.23,1.6-.46,2.41-.63l0-.08c-1-.69-2.06-1.3-3.12-1.91Zm-4.32-2.74c1.09.55,2.18,1.15,3.24,1.77l-.77-2.65c-.85.23-1.69.48-2.51.77Zm1.19,3.68c.79-.28,1.59-.51,2.39-.73l0-.08c-1.05-.62-2.12-1.22-3.21-1.77ZM323,291.36c1.1.51,2.22,1.09,3.3,1.65l-.88-2.62c-.82.29-1.66.53-2.47.85Zm1.32,3.64c.78-.31,1.58-.55,2.37-.82l0-.08c-1.06-.56-2.17-1.15-3.27-1.66Zm-4.51-2.43c1.13.5,2.26,1,3.35,1.55l-1-2.59-2.44.92Zm1.43,3.59,2.35-.89,0-.07c-1.09-.53-2.2-1.06-3.33-1.57Zm-4.57-2.3,3.39,1.46-1-2.57-2.4,1Zm1.51,3.56,2.34-1,0-.08-3.37-1.46Zm-4.61-2.2L317,296.6l-1.09-2.55-2.37,1.05Zm1.57,3.52,2.32-1,0-.07-3.39-1.38Zm-4.65-2.12c1.16.44,2.29.86,3.43,1.33l-1.13-2.53c-.8.34-1.57.72-2.35,1.08Zm1.63,3.5c.77-.35,1.53-.73,2.31-1.06l0-.07c-1.14-.47-2.28-.89-3.42-1.33ZM307.28,298c1.21.44,2.43.89,3.63,1.35l-1.17-2.51C308.92,297.21,308.09,297.59,307.28,298Zm-.11.07v0h0Zm1.72,3.59c.84-.42,1.69-.81,2.54-1.2l0-.07c-1.26-.48-2.53-1-3.8-1.42Z" style="fill:#0b0b0b"></path><path d="M256,325.88l-1.27-3.78h0l-.29-.83c2.23-.71,4.42-1.58,6.62-2.38s4.38-1.71,6.54-2.66c4.34-1.83,8.62-3.82,12.89-5.88,8.55-4.1,17-8.55,25.64-12.72l.38.79-2.32,1.12.05.1,3.46,1.25.5,1-3.46-1.26,1.21,2.46,2.29-1.11.38.79c-17,8.25-33.89,17.7-52.34,23.91l-.28-.84Zm45.23-24.75,3.46,1.22-1.21-2.46-2.3,1.14Zm1.73,3.48,2.29-1.13-.05-.09-3.46-1.23Zm-4.74-2,3.48,1.21-1.23-2.46-2.3,1.15Zm1.75,3.47L302.2,305l0-.09-3.47-1.21Zm-4.74-2,3.47,1.2-1.23-2.45L295.13,304Zm1.74,3.47,2.29-1.15,0-.09-3.48-1.21Zm-4.74-2,3.48,1.2-1.24-2.45-2.29,1.15Zm1.75,3.46,2.29-1.15,0-.08-3.48-1.2Zm-4.74-2,3.48,1.21-1.24-2.46-2.29,1.15Zm1.74,3.47,2.3-1.15-.05-.08-3.47-1.21Zm-4.73-2,3.47,1.22-1.23-2.47-2.29,1.14Zm1.72,3.47,2.3-1.15,0-.08-3.47-1.22Zm-4.72-2,3.47,1.23-1.23-2.47L283.15,310Zm1.71,3.48,2.3-1.14,0-.08-3.47-1.23Zm-4.71-2,3.45,1.26-1.2-2.48-2.3,1.11Zm1.68,3.49L284.2,314l0-.08-3.46-1.25ZM277.19,313l3.44,1.29-1.19-2.49-2.3,1.09Zm1.64,3.5,2.34-1.09,0-.08-3.45-1.29Zm-4.66-2.1c1.14.46,2.28.89,3.42,1.32l-1.16-2.5c-.77.36-1.54.73-2.31,1.07Zm1.6,3.52c.79-.34,1.56-.72,2.34-1.08l0-.08c-1.15-.43-2.29-.86-3.44-1.31Zm-4.64-2.15,3.41,1.36-1.14-2.52-2.32,1Zm1.57,3.54,2.35-1.06,0-.08-3.42-1.35Zm-4.62-2.22,3.4,1.42L270.37,316,268,317Zm1.51,3.55,2.38-1,0-.07-3.41-1.41ZM265,318.38c1.13.51,2.25,1,3.38,1.46l-1.08-2.55c-.78.33-1.56.67-2.35,1Zm1.46,3.58c.81-.31,1.6-.66,2.39-1l0-.07c-1.13-.48-2.26-.95-3.38-1.45Zm-4.54-2.34,3.35,1.5-1-2.57-2.36.94Zm1.4,3.59,2.4-1,0-.06-3.36-1.5Zm-4.5-2.43,3.32,1.59-1-2.59-2.38.88Zm1.33,3.62,2.43-.89,0-.07-3.34-1.58Zm-4.62-2.59c1.14.6,2.3,1.17,3.45,1.72l-.94-2.6C257.22,321.24,256.38,321.54,255.54,321.81Zm-.12.05h0Zm1.29,3.77c.91-.3,1.81-.61,2.7-.95l0-.07c-1.22-.57-2.44-1.17-3.64-1.8Z" style="fill:#0b0b0b"></path><path d="M198.59,328.18l1.51-3.7h0l.34-.82a53.23,53.23,0,0,0,13,3.43c1.12.15,2.25.16,3.37.26l1.69.11h1.73c1.16,0,2.31,0,3.46-.05l3.46-.22a98.47,98.47,0,0,0,13.74-2.09l1.71-.37,1.69-.44c1.13-.3,2.26-.56,3.38-.89,2.24-.67,4.48-1.31,6.69-2.09l.29.83-2.4.81,0,.1,3.24,1.69.37,1.09-3.26-1.69.83,2.61,2.46-.82.28.83c-2.29.81-4.63,1.48-7,2.18-1.17.34-2.36.62-3.54.93l-1.77.45-1.79.39a102.6,102.6,0,0,1-14.52,2.21l-3.68.24c-1.23,0-2.47,0-3.7.05h-1.85l-1.87-.12c-1.26-.1-2.51-.12-3.76-.29A59.26,59.26,0,0,1,198.25,329l.34-.81ZM249.15,324c1.06.6,2.13,1.2,3.21,1.79l-.82-2.62-2.42.73Zm1.1,3.73,2.49-.75,0-.09c-1.1-.59-2.17-1.19-3.23-1.79ZM246,324.88c1,.64,2.1,1.28,3.17,1.87l-.76-2.64c-.8.25-1.62.45-2.44.66Zm1,3.75c.84-.22,1.68-.42,2.51-.68l0-.1c-1.07-.58-2.14-1.23-3.18-1.86Zm-4.19-2.93c1,.65,2.05,1.29,3.1,1.93l-.69-2.66-2.44.63Zm.89,3.78,2.52-.65,0-.09c-1.06-.64-2.1-1.27-3.13-1.92Zm-4.12-3.08q1.5,1,3.06,2l-.62-2.68-2.46.53Zm.79,3.8,2.55-.55,0-.09q-1.58-1-3.09-2Zm-4-3.19c1,.72,2,1.47,3,2.14l-.54-2.7c-.82.19-1.65.3-2.47.45Zm.66,3.82c.86-.15,1.73-.27,2.57-.47l0-.09c-1-.66-2-1.41-3-2.13Zm-3.91-3.28c1,.75,1.92,1.46,2.92,2.19l-.46-2.71-2.48.4Zm.54,3.84c.87-.13,1.72-.29,2.58-.43v-.09c-1-.72-2-1.44-3-2.19Zm-3.8-3.46c.92.78,1.87,1.55,2.84,2.32l-.36-2.73-2.5.3Zm.41,3.86,2.6-.31,0-.09c-1-.77-1.94-1.54-2.87-2.31Zm-3.69-3.57c.9.81,1.83,1.68,2.77,2.43l-.27-2.74c-.83.12-1.67.12-2.5.19Zm.28,3.86c.87-.07,1.75-.08,2.61-.2v-.09c-.95-.75-1.89-1.61-2.79-2.42Zm-3.55-3.66c.86.86,1.75,1.66,2.67,2.49l-.17-2.76c-.84.05-1.67.12-2.51.15Zm.13,3.87c.88,0,1.75-.1,2.62-.15v-.09c-.92-.83-1.82-1.63-2.7-2.48ZM220,328.45c.83.88,1.69,1.75,2.57,2.62l-.07-2.76-2.5,0Zm0,3.87,2.62,0v-.08c-.89-.88-1.76-1.75-2.61-2.62Zm-3.24-4c.77.91,1.59,1.91,2.44,2.75l0-2.76c-.84,0-1.65-.09-2.48-.12Zm-.21,3.86c.88,0,1.77.16,2.64.12v-.08c-.86-.84-1.71-1.85-2.5-2.76Zm-3-4.1c.72,1,1.48,1.87,2.28,2.82l.2-2.76c-.82-.07-1.65-.08-2.46-.19Zm-.45,3.84c.88.12,1.77.13,2.65.2v-.08c-.82-.94-1.61-1.83-2.34-2.82Zm-2.74-4.34c.66,1,1.35,2,2.09,3l.37-2.75-2.44-.38Zm-.69,3.8,2.62.41v-.08c-.76-1-1.47-2-2.15-3Zm-2.46-4.5c.59,1,1.2,2.15,1.89,3.17l.53-2.72c-.8-.14-1.59-.39-2.39-.58Zm-.94,3.75c.86.2,1.72.46,2.59.62v-.08c-.7-1-1.33-2.13-1.94-3.17ZM204,326.05c.51,1.14,1.09,2.16,1.7,3.23l.71-2.68a22,22,0,0,1-2.37-.68Zm-1.16,3.68a24.06,24.06,0,0,0,2.55.73l0-.07a35,35,0,0,1-1.75-3.25Zm-2-4.91c.49,1.14,1,2.31,1.58,3.48l.88-2.63Zm-.12,0h0Zm-1.45,3.71,2.76,1,0-.07c-.62-1.24-1.18-2.46-1.7-3.67Z" style="fill:#0b0b0b"></path><path d="M153.49,292.3l2.8-2.84h0l.62-.63c6.81,6.72,13.47,13.5,20.51,19.71.87.78,1.78,1.51,2.67,2.27l1.34,1.13L182.8,313c.93.71,1.83,1.44,2.76,2.13l2.84,2c.93.7,1.94,1.24,2.9,1.87l1.46.91c.49.3,1,.54,1.51.82,1,.53,2,1.1,3,1.59l3.11,1.37-.33.82-2.26-1,0,.09c.39,1.14.82,2.28,1.28,3.45l-.44,1.06c-.47-1.17-.91-2.32-1.32-3.46l-1.14,2.49,2.42,1.06-.34.82-3.43-1.52c-1.12-.53-2.2-1.15-3.31-1.73-.54-.3-1.1-.57-1.63-.9l-1.57-1c-1-.66-2.14-1.27-3.12-2l-3-2.12c-1-.73-1.94-1.49-2.9-2.24l-1.45-1.13-1.39-1.17c-.93-.79-1.88-1.56-2.78-2.37-7.28-6.41-14-13.25-20.76-19.93l.62-.63Zm41.37,29.86c.33,1.15.65,2.4,1.08,3.52l1.18-2.48c-.77-.31-1.47-.76-2.21-1.13Zm-1.81,3.44c.79.4,1.53.87,2.35,1.21l0-.09c-.44-1.13-.78-2.38-1.13-3.54Zm-1.05-5c.25,1.22.59,2.33.93,3.53l1.3-2.42c-.72-.41-1.48-.74-2.17-1.21Zm-2,3.34c.73.49,1.54.85,2.31,1.28l0-.08c-.35-1.21-.7-2.33-1-3.55Zm-.81-5.07c.23,1.18.49,2.37.77,3.58l1.41-2.35-2.12-1.32Zm-2.11,3.26,2.23,1.39,0-.09c-.29-1.21-.55-2.41-.79-3.6Zm-.59-5.11c.17,1.2.37,2.42.59,3.64l1.52-2.29-2-1.44Zm-2.24,3.17,2.14,1.51.06-.08q-.34-1.85-.63-3.66Zm-.42-5.1c.12,1.23.29,2.43.49,3.63l1.6-2.23c-.69-.48-1.37-1-2-1.49Zm-2.34,3.09c.67.55,1.38,1.05,2.1,1.55l.06-.08c-.21-1.21-.39-2.41-.52-3.65Zm-.27-5.11c.12,1.2.24,2.41.39,3.64l1.67-2.19-2-1.54Zm-2.43,3,2.06,1.6.06-.07c-.15-1.23-.29-2.45-.41-3.66Zm-.11-5.14.27,3.68,1.74-2.14-1.93-1.63Zm-2.5,3,2,1.68.06-.07-.29-3.69Zm0-5.12c.05,1.23.11,2.45.2,3.67l1.79-2.1c-.65-.53-1.28-1.09-1.91-1.66Zm-2.56,2.91c.64.58,1.29,1.15,2,1.7l.06-.07c-.1-1.22-.17-2.44-.22-3.68Zm.09-5.12.14,3.66,1.83-2.06-1.89-1.69Zm-2.61,2.86,1.93,1.73,0-.07-.14-3.67Zm.18-5.13.06,3.69,1.87-2-1.85-1.74Zm-2.65,2.82,1.88,1.77.06-.06-.08-3.69Zm.23-5.11c0,1.23,0,2.45,0,3.68l1.9-2c-.62-.58-1.24-1.16-1.85-1.76Zm-2.68,2.79c.61.61,1.24,1.19,1.87,1.78l.06-.06c0-1.23,0-2.45,0-3.68Zm.28-5.11v3.68l1.92-2-1.83-1.78Zm-2.7,2.77,1.85,1.79.06-.05v-3.68Zm.31-5.11,0,3.68,1.93-2-1.82-1.8Zm-2.71,2.76,1.83,1.8.06-.05,0-3.69Zm.33-5.1,0,3.67,1.94-2-1.82-1.8ZM159,297.76l1.83,1.8.05-.05,0-3.68Zm.34-5.1,0,3.67,2-2-1.82-1.81Zm-2.72,2.74,1.82,1.8,0-.05,0-3.68Zm.34-5.29,0,3.87,2-2Zm-.11-.09h0Zm-2.79,2.84,2,2,0,0,0-4.05Z" style="fill:#0b0b0b"></path><path d="M109.51,256.7l2-3.45h0l.45-.76a177.18,177.18,0,0,1,23.71,16.8c7.45,6.16,14.39,12.85,21.2,19.56l-.62.63-1.82-1.8-.08.07,0,3.69-.81.81,0-3.68-1.92,2,1.82,1.79-.62.63c-6.77-6.68-13.59-13.25-20.84-19.25a172.73,172.73,0,0,0-22.94-16.25l.45-.76ZM152,285.41v3.67l1.92-2L152,285.33Zm-2.7,2.79,1.83,1.78.07-.07v-3.68Zm.29-5.13v3.69l1.91-2L149.61,283Zm-2.69,2.81,1.83,1.77.07-.07V283.9Zm.23-5.12.06,3.68,1.9-2-1.88-1.77Zm-2.65,2.83,1.85,1.75.07-.07,0-3.67Zm.19-5.13c0,1.22.06,2.46.09,3.68l1.87-2c-.63-.59-1.24-1.19-1.88-1.76ZM142,281.31c.64.57,1.25,1.16,1.87,1.74l.06-.07c0-1.22,0-2.46-.08-3.68Zm.13-5.12.13,3.68,1.86-2-1.91-1.73Zm-2.59,2.89,1.88,1.71.07-.07-.13-3.67Zm.07-5.13c.08,1.22.14,2.44.18,3.68l1.83-2.06c-.63-.58-1.28-1.15-1.93-1.71Zm-2.55,2.92c.64.55,1.28,1.11,1.9,1.68l.06-.07c0-1.23-.09-2.45-.17-3.67Zm0-5.13.23,3.68,1.81-2.08-2-1.69Zm-2.51,2.95,1.92,1.66.06-.06-.21-3.67Zm-.08-5.12c.11,1.23.22,2.43.29,3.67l1.78-2.11c-.64-.57-1.33-1.1-2-1.65Zm-2.46,3c.65.54,1.32,1.06,1.95,1.62l.06-.07c-.07-1.23-.18-2.43-.28-3.65Zm-.16-5.13.33,3.68,1.75-2.13-2-1.64Zm-2.41,3,2,1.6.06-.06-.32-3.67Zm-.26-5.11c.15,1.23.3,2.43.42,3.65l1.71-2.16c-.67-.54-1.37-1.06-2-1.58Zm-2.36,3.07c.67.51,1.35,1,2,1.54l.05-.06c-.11-1.22-.26-2.42-.4-3.64Zm-.33-5.12.46,3.67,1.68-2.2-2.06-1.57Zm-2.3,3.11,2,1.53,0-.06-.44-3.66Zm-.45-5.09.55,3.62,1.64-2.22-2.11-1.5Zm-2.24,3.15,2.07,1.46,0-.06-.53-3.61Zm-.52-5.1.59,3.65,1.6-2.26-2.12-1.5Zm-2.18,3.18,2.06,1.47,0-.06-.58-3.65Zm-.65-5.05.69,3.6,1.55-2.3-2.17-1.41ZM116,260.73l2.13,1.38,0-.06-.68-3.59Zm-.73-5.08.74,3.63,1.51-2.33-2.18-1.41Zm-2,3.28,2.12,1.38,0-.07-.73-3.61Zm-.91-5.21.89,3.75,1.46-2.36Zm-.12-.05h0Zm-2,3.42,2.4,1.42,0-.06c-.29-1.3-.6-2.61-.92-3.92Z" style="fill:#0b0b0b"></path><path d="M56.58,237.86l.64-3.94h0l.14-.87a170.29,170.29,0,0,1,28.18,7.2A151.88,151.88,0,0,1,112,252.52l-.44.76L109.27,252l0,.09.9,3.59-.58,1-.88-3.58-1.35,2.39,2.17,1.28-.44.76a145.42,145.42,0,0,0-25.41-11.8,164.93,164.93,0,0,0-27.2-7l.14-.86Zm49.65,12.58,1,3.52,1.34-2.39-2.3-1.22Zm-1.83,3.43,2.23,1.18.05-.08-1-3.51Zm-1.17-5,1.07,3.55,1.28-2.42-2.3-1.22Zm-1.75,3.47,2.23,1.19.05-.09-1-3.54Zm-1.3-4.94,1.17,3.46,1.23-2.45-2.35-1.11Zm-1.68,3.5,2.29,1.08,0-.09-1.15-3.46Zm-1.39-4.95,1.22,3.5,1.17-2.49-2.35-1.11Zm-1.6,3.54,2.29,1.08,0-.09L96.64,247ZM94,244.59c.46,1.14.91,2.25,1.32,3.42l1.12-2.52c-.78-.37-1.6-.67-2.39-1Zm-1.51,3.57c.78.33,1.57.62,2.33,1l0-.08c-.41-1.17-.86-2.27-1.3-3.42Zm-1.63-4.86,1.39,3.42,1.06-2.54-2.4-1Zm-1.43,3.6,2.34,1,0-.08-1.37-3.42Zm-1.73-4.83.75,1.67.71,1.71,1-2.57-1.2-.49L87.73,242Zm-1.35,3.63,1.19.42,1.17.48,0-.08L88,244.81l-.74-1.66Zm-1.85-4.76L86,244.28l1-2.59-2.45-.86Zm-1.27,3.66,2.39.84,0-.08L84.12,242Zm-1.93-4.77c.55,1.09,1.08,2.24,1.6,3.34l.89-2.61c-.82-.28-1.63-.59-2.46-.84Zm-1.19,3.68c.81.25,1.59.56,2.39.83l0-.08c-.52-1.1-1-2.25-1.59-3.34ZM78,238.87l1.69,3.25.84-2.63-2.49-.74Zm-1.1,3.7,2.42.72,0-.08L77.71,240Zm-2.15-4.67,1.75,3.27.77-2.65-2.48-.74Zm-1,3.73,2.42.72,0-.08L74.48,239Zm-2.26-4.57c.62,1.06,1.24,2.1,1.83,3.16l.72-2.67-2.52-.61Zm-1,3.75,2.46.6,0-.08c-.59-1.06-1.19-2.1-1.81-3.16Zm-2.35-4.55,1.89,3.17.67-2.68-2.53-.61ZM67.33,240l2.46.6,0-.07L68,237.38Zm-2.43-4.51c.67,1,1.31,2.08,1.95,3.14l.61-2.7c-.84-.2-1.68-.43-2.53-.57Zm-.79,3.78c.83.14,1.65.35,2.47.55v-.07c-.62-1.06-1.26-2.14-1.93-3.14Zm-2.54-4.41,2,3.07.55-2.72-2.54-.48Zm-.72,3.79,2.49.47,0-.07-2-3.06Zm-2.72-4.58,2.18,3.24.5-2.73Zm-.13,0h0ZM57.34,238l2.75.52v-.07l-2.26-3.38Z" style="fill:#0b0b0b"></path><path d="M196.09,255.07l2.63,3h0l.58.66-1.87,1.63c-.6.52-1.31,1.16-2.16,1.86l-2.87,2.33L189,267.31c-1.2,1-2.54,1.93-3.89,2.95s-2.74,2.1-4.22,3.1l-4.45,3.07a149.74,149.74,0,0,1-17.33,10.05l-1.78.86-1.64.72c-1,.46-2,.82-2.72,1.12s-1.4.51-1.82.66c-.21.07-.41.14-.54.17l-.19.06-.24-.84.44-.14.88-.3c.33-.11.64-.23.87-.32l.38-.15,0-.1-.53-.23-1.15-.55-1.12-.57-.49-.28-.31-1.1.44.29c.29.17.69.37,1.1.58s.82.41,1.13.55l.52.24-1-2.56-.36.14c-.21.09-.5.2-.78.29l-.78.27-.32.1-.24-.85.5-.16c.36-.13.88-.29,1.58-.58s1.53-.59,2.49-1l1.53-.67,1.68-.81a143.52,143.52,0,0,0,16.62-9.65c1.45-1,2.9-2,4.32-3s2.77-2,4.1-3,2.62-1.92,3.8-2.88l3.32-2.68,2.81-2.27c.82-.69,1.52-1.32,2.11-1.83l1.83-1.59.58.66ZM155.88,286.9l-1.72-.7c-.84-.34-1.68-.73-1.68-.73l1,2.55s.62-.23,1.22-.5l1.2-.53Zm-1.57-3.56-1.15.5c-.57.26-1.14.48-1.14.48l0,.09s.83.39,1.67.74l1.69.7Zm4.66,2.11-1.74-.63c-.86-.31-1.7-.65-1.7-.65l1.13,2.5,1.18-.55,1.18-.57Zm-1.7-3.49-1.13.54c-.56.28-1.13.54-1.13.54l0,.09s.84.34,1.7.65l1.72.64Zm4.73,2-1.74-.56c-.87-.28-1.74-.61-1.74-.61l1.22,2.46s.6-.27,1.16-.58l1.15-.61Zm-1.8-3.44-1.11.59c-.55.31-1.12.56-1.12.56l0,.09s.86.34,1.72.61l1.74.58Zm4.79,1.84-.55-.16-1.22-.38-1.75-.56,1.29,2.43,1.15-.61.79-.42.35-.2Zm-1.89-3.39-.34.2-.76.4-1.11.59,0,.09,1.74.56,1.22.39.55.16Zm4.83,1.69-3.54-1,1.35,2.4L168,280.7Zm-2-3.35-2.19,1.27,0,.08,3.52,1Zm4.86,1.59-1.78-.43-1.78-.48,1.41,2.36s.57-.31,1.12-.66l1.09-.69Zm-2-3.29-1.07.67c-.53.34-1.08.65-1.08.65l0,.07s.89.26,1.78.49l1.77.44Zm4.9,1.48-3.58-.85,1.46,2.34,2.18-1.39Zm-2.11-3.25-2.13,1.35.05.08,3.57.86Zm4.93,1.38-1.8-.36c-.88-.18-1.79-.4-1.79-.4l1.51,2.3s.55-.33,1.08-.71l1.06-.73ZM174.33,272l-1,.72c-.52.37-1.06.69-1.06.69l.05.08s.9.22,1.79.4l1.79.37Zm4.95,1.29-3.61-.71,1.55,2.28,2.13-1.47Zm-2.22-3.17L175,271.52l.05.07,3.6.72Zm5,1.22-1.8-.3-1.82-.35L180,272.9l1.07-.73,1-.77Zm-2.27-3.13-1,.75-1,.72.05.07,1.81.35,1.8.31Zm5,1.11-3.63-.59,1.63,2.23,2.07-1.54Zm-2.33-3.09-2,1.51.05.07,3.62.59Zm5,1.07-3.66-.56,1.67,2.2,2.07-1.54Zm-2.37-3.06-2,1.52.05.06,3.64.57Zm5,.95-3.63-.46,1.7,2.18,2-1.62Zm-2.41-3-2,1.59,0,.06,3.62.47Zm5,.89-3.66-.43,1.74,2.16,2-1.62Zm-2.45-3-2,1.6,0,.05,3.65.45Zm5.06.85s-.91-.08-1.84-.19l-1.84-.21,1.77,2.14,1-.81c.51-.4,1-.83,1-.83Zm-2.49-2.95s-.48.42-1,.81l-1,.8,0,.06,1.84.21c.92.11,1.82.19,1.82.19Zm5.21.75-3.84-.34,1.8,2.12Zm.09-.1v0h0Zm-2.6-3-2.11,1.84,0,.06,4,.35Z" style="fill:#0b0b0b"></path><path d="M235.36,214.09l3.08,2.55h0l.68.57s-.58.68-1.58,1.88L233.3,224l-2.84,3.31c-1,1.17-2.06,2.41-3.22,3.64l-7.16,7.78c-2.5,2.58-5.06,5.13-7.42,7.54-1.17,1.21-2.37,2.33-3.5,3.38l-3.18,3-2.69,2.52-2.14,1.88-1.87,1.63-.58-.66,1.94-1.69-.07-.08L196.9,256l-.76-.87,3.67.3-1.82-2L196.08,255l-.58-.67,1.83-1.59,2.1-1.84,2.63-2.48,3.12-2.93c1.11-1,2.29-2.13,3.44-3.33l7.3-7.41,7-7.65c1.14-1.21,2.19-2.43,3.18-3.59l2.79-3.26,4.19-4.88c1-1.2,1.57-1.88,1.57-1.88l.67.56ZM203.09,254l-.57,0c-.34,0-.8,0-1.27-.08l-1.84-.14,1.83,2,1-.84.66-.6.29-.27Zm-2.62-2.87-.29.27c-.17.16-.41.38-.65.58l-.95.84.06.07,1.84.15c.47,0,.93.06,1.26.08l.57,0Zm5.07.56-3.66-.18,1.86,2,1.87-1.76Zm-2.65-2.84L201,250.63l.07.07,3.65.19Zm5.1.53-3.68-.16,1.88,2,1.88-1.77Zm-2.68-2.81-1.85,1.75.07.07,3.67.16Zm5.13.51-3.7-.14,1.9,2,1.88-1.76Zm-2.71-2.78-1.85,1.74.07.07,3.69.14Zm5.08.39-3.66-.06,1.93,2,1.81-1.83ZM210.07,242l-1.78,1.81.06.06,3.65.06Zm5.1.35-3.67,0,1.95,1.94,1.81-1.83Zm-2.76-2.72-1.79,1.81.07.06,3.67.05Zm5.13.33-3.69,0,2,1.93,1.81-1.83Zm-2.79-2.69L213,239.06l.07.06,3.68,0Zm5.12.26-1.83,0h-1.85l2,1.91.9-.92.88-.94Zm-2.81-2.66-.87.94-.89.9.06.06h1.85l1.83,0Zm5.09.19-3.66.08,2,1.89,1.74-1.89Zm-2.84-2.64-1.72,1.88.06.05,3.65-.07Zm5.11.16-3.68.1,2,1.88,1.74-1.89Zm-2.86-2.6-1.72,1.87.06,0,3.67-.09Zm5.14.13-3.7.12,2.05,1.85,1.74-1.89Zm-2.88-2.58-1.73,1.87.06.05,3.69-.11Zm5.11.07-1.82.1-1.85.07,2.07,1.84s.44-.47.86-1l.84-1ZM226,225l-.83,1c-.41.48-.85.94-.85.94l.06,0,1.84-.07,1.82-.09Zm5.09,0-3.66.21,2.08,1.83,1.68-1.95Zm-2.92-2.53-1.66,1.94.06,0,3.65-.21Zm5.1,0-3.67.23,2.1,1.81,1.67-1.95Zm-2.93-2.5-1.66,1.93,0,0,3.67-.22Zm5.12-.05-3.68.24,2.11,1.8,1.67-2Zm-3-2.48-1.65,1.93.05,0,3.68-.24Zm5.32-.1-3.87.29,2.13,1.77.88-1Zm.08-.1h0Zm-3.07-2.54-.9,1.08-.92,1.07.06,0,2-.14,2-.15Z" style="fill:#0b0b0b"></path><path d="M273.82,171.54l2.72,2.92h0l.6.65-1.77,1.66c-1.14,1-2.7,2.59-4.58,4.46-3.74,3.74-8.61,8.88-13.3,14.21s-9.27,10.77-12.7,14.87l-5.7,6.86-.68-.56,1.63-2-.08-.06-3.66.29-.88-.74,3.66-.29L237,212.1l-1.63,2-.67-.56,5.7-6.88c3.44-4.11,8-9.6,12.81-15s9.71-10.63,13.54-14.47c1.92-1.9,3.52-3.5,4.69-4.57l1.81-1.7.6.65ZM242.1,212l-3.67.29,2.12,1.75,1.63-2Zm-3-2.48-1.64,2,.08.06,3.67-.28Zm5.12-.09-3.66.28,2.11,1.76,1.64-2Zm-3-2.48-1.64,2,.08.06,3.66-.28Zm5.13-.08-3.67.27,2.11,1.76,1.64-2Zm-3-2.49-1.65,2,.08.06,3.67-.27Zm5.12-.07-3.66.26,2.11,1.77,1.64-2Zm-3-2.5-1.65,2,.07.06,3.67-.26Zm5.13,0L247,202l2.1,1.78,1.65-1.94Zm-3-2.52-1.66,2,.07.06,3.67-.24Zm5.12,0-3.66.22,2.09,1.79,1.66-1.94Zm-2.93-2.54-1.67,2,.07.06,3.66-.22Zm5.12,0-3.67.2,2.09,1.8,1.67-1.92Zm-2.92-2.55-1.68,1.94.06.06,3.68-.2Zm5.12.05-3.67.17,2.08,1.82,1.68-1.91Zm-2.9-2.57-1.7,1.93.07,0,3.67-.17Zm5.12.09-3.67.14,2.06,1.83,1.7-1.89Zm-2.87-2.59-1.72,1.91.06.06,3.68-.15Zm5.11.13-1.84,0-1.83.06,2.05,1.86s.42-.48.85-1l.86-.93Zm-2.85-2.62-.87.94-.86,1,.06.05,1.83-.06,1.85-.05Zm5.11.17-3.67.08,2,1.88,1.72-1.87Zm-2.82-2.64-1.75,1.89.06,0,3.67-.08Zm5.11.23h-1.84l-1.84,0,2,1.9s.43-.47.87-.92l.89-.92Zm-2.79-2.67-.89.93c-.45.46-.89.93-.89.93l.06,0,1.84,0h1.84Zm5.1.28H264.9l2,1.92,1.76-1.83Zm-2.76-2.7L264,181.18l.06,0h3.67Zm5.11.36-3.68-.07,2,1.94,1.8-1.78ZM268.19,177l-1.83,1.81.05.05,3.69.06Zm5.08.4-3.66-.09,1.95,2,1.8-1.79Zm-2.68-2.78-1.84,1.82.05.05,3.67.08Zm5.28.52-3.86-.18,1.92,2Zm.09-.1v0h0Zm-2.72-2.91L271.17,174l0,.05,4.06.18Z" style="fill:#0b0b0b"></path><path d="M323,141.62l.85,3.9h0l.19.86-2.27.5c-.71.2-1.56.49-2.55.8a31.81,31.81,0,0,0-3.29,1.14l-3.83,1.59-4.16,2.09c-.73.34-1.44.77-2.17,1.19L303.56,155c-1.5.83-2.95,1.8-4.43,2.75a152.28,152.28,0,0,0-15.44,11.51c-2,1.69-3.63,3.19-4.8,4.2-.58.5-1,.93-1.31,1.21l-.47.43-.59-.64.92-.87c.46-.44.94-.85.94-.85l-.07-.08s-.93-.08-1.83-.12l-1.83-.09-.78-.84,1.83.08,1.84.12-1.84-2s-.49.42-1,.86l-.94.88-.59-.64.47-.45c.31-.28.76-.72,1.36-1.24,1.2-1,2.85-2.58,4.94-4.32a157.16,157.16,0,0,1,16-11.95c1.53-1,3.05-2,4.62-2.87l2.31-1.34c.76-.45,1.51-.89,2.3-1.26l4.46-2.25,4.16-1.72a33.53,33.53,0,0,1,3.61-1.26c1.08-.34,2-.66,2.82-.88l2.52-.56.19.86Zm-42.21,28.83-3.66-.29,1.83,2,1.9-1.67Zm-2.56-2.93-1.94,1.71.07.08,3.67.27Zm5.07.77-1.83-.2-1.83-.15,1.8,2.07.95-.83,1-.81Zm-2.5-3-1,.82-1,.85.06.08,1.83.15,1.84.19Zm5.05.86-3.64-.41,1.76,2.1,1.95-1.61Zm-2.45-3-2,1.65.06.07,3.65.4Zm5,1-1.82-.26c-.92-.14-1.83-.24-1.83-.24l1.73,2.14s.48-.4,1-.78l1-.77Zm-2.38-3.06-1,.79c-.52.39-1,.8-1,.8l.06.08s.91.1,1.83.23l1.83.26Zm5,1.05-3.61-.55,1.68,2.18,2-1.54ZM288.75,159l-2.06,1.58.06.07,3.63.54Zm5,1.18-3.62-.67,1.63,2.22,2.06-1.46ZM291.5,157l-2.12,1.5.06.07,3.64.65Zm4.94,1.25-1.78-.35-1.8-.35,1.59,2.26,2.06-1.46Zm-2.17-3.21-2.12,1.5.05.07L294,157l1.79.35Zm4.94,1.42-1.78-.42-1.8-.4,1.53,2.29,2.12-1.36Zm-2.09-3.26-2.18,1.41.05.07,1.81.4,1.79.42Zm4.88,1.5s-.89-.26-1.77-.46l-1.78-.43,1.48,2.34,1.06-.69c.52-.35,1.07-.65,1.07-.65Zm-2-3.31s-.57.32-1.11.68l-1.09.7,0,.07,1.79.42c.88.2,1.78.46,1.78.46Zm4.85,1.66-1.75-.51-1.78-.49,1.42,2.37,2.17-1.27Zm-1.92-3.36-2.24,1.3,0,.07,1.79.49,1.76.5Zm4.8,1.77-1.75-.59-1.75-.51,1.35,2.41,1.09-.64,1.12-.56Zm-1.81-3.42-1.17.59-1.12.66,0,.07,1.75.5,1.77.59Zm4.73,1.95-1.71-.62-1.74-.6,1.27,2.46,2.23-1.12ZM309,146.52l-2.34,1.18,0,.07,1.75.59,1.72.61Zm4.64,2.16-1.68-.73-1.19-.49-.53-.19,1.17,2.51.34-.18.79-.32,1.15-.48Zm-1.5-3.55-1.22.5-.83.35-.37.18,0,.07.54.19,1.2.48,1.71.73Zm4.51,2.31-1.63-.75-1.67-.74,1.05,2.56,2.3-.95Zm-1.33-3.62-2.43,1,0,.07,1.69.73,1.64.74Zm4.42,2.64-1.59-.88-1.65-.86.92,2.61,2.36-.75Zm-1.12-3.7-2.52.81,0,.07,1.67.85,1.61.87Zm4.39,3s-.79-.54-1.62-1.06c-.42-.28-.82-.49-1.14-.67l-.52-.29.77,2.66.39-.12a6.33,6.33,0,0,1,.85-.24Zm.12,0h0Zm-.91-3.88-1.43.32a9,9,0,0,0-1,.27l-.44.14,0,.07.56.3c.33.18.77.41,1.21.7.88.54,1.72,1.1,1.72,1.1Z" style="fill:#0b0b0b"></path><path d="M373.93,164.34l-3.23,2.35h0l-.71.52-1.44-1.89c-.88-1.22-2.3-2.84-4-4.78A51.83,51.83,0,0,0,350,149.22a37.18,37.18,0,0,0-17.63-3.9l-1.79,0c-.57,0-1.11.13-1.62.19l-2.62.32c-.73.12-1.29.27-1.68.35l-.59.13-.18-.86,1.2-.26.82-.19.38-.05,0-.11s-.18-.15-.45-.35l-1-.7-1.52-1-.24-1.12,1.54,1,1,.7c.28.2.46.35.46.35l-.45-2.7a3.4,3.4,0,0,0-.41.06l-.88.19-1.3.29-.19-.86.67-.15c.43-.08,1.06-.25,1.87-.39l3-.36c.58-.07,1.18-.16,1.83-.21l2.05,0,2.23,0c.77,0,1.57.12,2.39.18s1.66.12,2.52.23l2.6.49,1.33.25c.45.09.88.25,1.32.37l2.69.81c.9.28,1.75.7,2.64,1a24.34,24.34,0,0,1,2.6,1.18L355,145.4c.84.44,1.59,1,2.38,1.49a46.63,46.63,0,0,1,4.41,3.2,25.48,25.48,0,0,1,2,1.68l1.84,1.66c1.15,1.12,2.18,2.23,3.16,3.22,1.83,2.09,3.35,3.85,4.3,5.15l1.54,2-.71.52Zm-44.51-19.86s-.67-.58-1.38-1.16-1.45-1.15-1.45-1.15l.41,2.72,2.43-.3Zm-.36-3.87-2.65.33v.1s.76.57,1.48,1.14,1.41,1.16,1.41,1.16Zm3.55,3.71s-.62-.64-1.28-1.29c-.34-.32-.68-.64-.93-.89s-.43-.38-.43-.38l.21,2.73a3.18,3.18,0,0,1,.38,0h.84l1.21,0Zm-.06-3.88-1.34,0-.92,0a4,4,0,0,0-.42,0v.1s.18.14.45.39l.95.88c.68.65,1.31,1.3,1.31,1.3Zm3.25,3.95s-.56-.71-1.17-1.42-1.26-1.3-1.26-1.3v2.74s.61,0,1.21,0l1.22.1Zm.25-3.87-1.34-.11c-.67,0-1.33,0-1.33,0v.1s.67.64,1.3,1.3,1.21,1.42,1.21,1.42ZM339,144.7l-.32-.48c-.2-.28-.47-.62-.74-1-.55-.71-1.15-1.42-1.15-1.42l-.23,2.74,1.21.1c.31,0,.61,0,.84.08l.37.07Zm.57-3.84-.42-.08c-.25,0-.58-.05-.92-.08l-1.33-.12v.1s.61.71,1.18,1.42c.29.36.56.7.77,1l.32.48Zm2.56,4.43s-.45-.75-.94-1.52-1-1.53-1-1.53l-.46,2.71,2.39.45Zm.89-3.77-2.64-.51,0,.1s.55.77,1.06,1.54,1,1.52,1,1.52Zm2.17,4.66s-.38-.8-.8-1.62-.88-1.64-.88-1.64l-.69,2.67,2.33.7Zm1.2-3.68-2.57-.78,0,.09s.48.83.91,1.65.83,1.63.83,1.63Zm1.78,4.81s-.31-.84-.66-1.7c-.17-.43-.35-.86-.49-1.19s-.24-.52-.24-.52l-.91,2.6a1.71,1.71,0,0,1,.36.13l.77.32,1.12.47Zm1.5-3.57-1.24-.52-.85-.35a2,2,0,0,0-.4-.13l0,.08a5.18,5.18,0,0,1,.25.52l.52,1.2c.36.86.68,1.71.68,1.71Zm1.39,4.92s-.23-.87-.51-1.76c-.13-.46-.29-.87-.41-1.19s-.21-.53-.21-.53l-1.11,2.52.35.15a5.84,5.84,0,0,1,.76.34l1.08.58Zm1.78-3.44-1.18-.62a7.45,7.45,0,0,0-.84-.39l-.39-.16,0,.08.22.54c.12.32.29.73.43,1.19.29.9.54,1.78.54,1.78Zm1,5-.11-.56c-.07-.34-.16-.8-.28-1.23-.23-.86-.49-1.75-.49-1.75l-1.31,2.43,1.08.57a6.21,6.21,0,0,1,.72.43l.32.21Zm2-3.3-.35-.22a6.34,6.34,0,0,0-.78-.48l-1.18-.62,0,.07s.28.9.52,1.77c.12.43.22.89.29,1.23l.12.57Zm.67,5.06s0-.23-.08-.56-.13-.77-.21-1.21l-.35-1.8-1.49,2.32,1,.67.71.46a3.2,3.2,0,0,1,.31.22Zm2.25-3.15s-.13-.1-.34-.23l-.77-.5-1.12-.73,0,.07.37,1.82c.09.44.17.89.23,1.22s.08.57.08.57Zm.3,5.12s-.09-.89-.17-1.79l-.22-1.84-1.64,2.22,1.95,1.51Zm2.44-3-2.1-1.63,0,.07s.12.92.23,1.85.19,1.81.19,1.81Zm0,5.12-.05-1.82-.09-1.85-1.78,2.11,1.84,1.66Zm2.62-2.84-2-1.77-.05.06.11,1.87c0,.92.07,1.84.07,1.84Zm-.29,5.1.06-1.83c0-.47,0-.93,0-1.27s0-.57,0-.57l-1.9,2,.29.26a8,8,0,0,1,.61.59l.86.89Zm2.76-2.7-.92-1a7.45,7.45,0,0,0-.64-.63l-.31-.28-.05.06s0,.23,0,.57,0,.81,0,1.28c0,.92,0,1.85,0,1.85Zm-.53,5.07.05-.57c0-.34.07-.8.09-1.25,0-.91.07-1.82.07-1.82l-2,1.91.86.89a7.64,7.64,0,0,1,.58.64l.25.29Zm2.88-2.56-.26-.31c-.16-.19-.38-.44-.61-.67l-.92-1-.05.05-.05,1.84c0,.45-.05.91-.08,1.26l-.05.58Zm-.76,5,.2-1.8c.08-.91.17-1.83.17-1.83l-2.09,1.82,1.62,1.89Zm3-2.43-1.71-2-.05,0-.16,1.85-.19,1.81Zm-1,5.21.3-1.89c.13-1,.27-1.93.27-1.93l-2.17,1.73Zm.08.09h0Zm3.2-2.38-1.76-2.29-.05,0-.28,2-.3,2Z" style="fill:#0b0b0b"></path><path d="M397.31,216.93,393.46,218h0l-.85.24s-.24-.85-.67-2.34-1.05-3.59-1.84-6.12c-1.59-5.05-3.91-11.71-6.65-18.18a143.52,143.52,0,0,0-8.65-17.17l-1.89-3c-.56-.89-1.11-1.63-1.53-2.26l-1-1.46c-.22-.33-.36-.5-.36-.5l.71-.52a3.69,3.69,0,0,1,.23.32c.14.19.31.45.49.71.36.51.71,1,.71,1l.09-.06.36-1.8c.09-.45.17-.91.24-1.25s.09-.57.09-.57l.93-.67-.09.57c-.06.34-.15.8-.23,1.26l-.36,1.81,2.26-1.56-.74-1.07-.51-.74a3.59,3.59,0,0,0-.24-.33l.71-.51a5.46,5.46,0,0,1,.39.53c.24.36.6.88,1.06,1.54s1,1.46,1.62,2.4l2,3.19a145.83,145.83,0,0,1,9,17.88c2.84,6.68,5.22,13.52,6.85,18.69.8,2.59,1.46,4.75,1.88,6.27l.69,2.39-.85.23ZM374.07,171.4s.23-.9.43-1.79.37-1.79.37-1.79l-2.27,1.54s.35.52.71,1l.67,1.06Zm3.27-2.1s-.34-.56-.7-1.1l-.74-1.08-.08.06-.36,1.8c-.2.9-.43,1.8-.43,1.8Zm-1.53,4.89.46-1.76.44-1.78-2.32,1.46,1.33,2.13Zm3.33-2L377.76,170l-.08.05-.43,1.8-.46,1.77ZM377.45,177l.52-1.75.5-1.77-2.36,1.39,1.24,2.19Zm3.38-1.89-1.28-2.27-.09.05-.5,1.79c-.26.88-.51,1.76-.51,1.76ZM379,179.94l.58-1.74c.29-.89.54-1.76.54-1.76l-2.41,1.33s.33.54.61,1.11l.58,1.11Zm3.43-1.81-.6-1.15c-.29-.58-.62-1.14-.62-1.14l-.09,0s-.24.87-.53,1.76l-.58,1.76Zm-1.92,4.74s.32-.86.61-1.72l.58-1.74-2.44,1.27.58,1.12.4.77.17.35Zm3.48-1.72-.18-.37-.41-.79-.6-1.15-.08,0-.58,1.75c-.28.87-.6,1.73-.6,1.73Zm-2.05,4.7,1.28-3.44-2.47,1.21,1.09,2.28Zm3.51-1.64-1.12-2.34-.08,0L383,185.36Zm-2.14,4.65.69-1.7c.35-.86.67-1.72.67-1.72l-2.5,1.16s.27.57.52,1.15.51,1.16.51,1.16Zm3.54-1.57-.52-1.18c-.26-.6-.53-1.19-.53-1.19l-.08,0s-.33.87-.67,1.73-.69,1.71-.69,1.71Zm-2.22,4.61s.38-.85.72-1.69.69-1.7.69-1.7l-2.52,1.11.51,1.16c.26.57.49,1.16.49,1.16Zm3.57-1.51s-.23-.6-.5-1.19-.53-1.18-.53-1.18l-.08,0-.68,1.71c-.34.84-.72,1.69-.72,1.69ZM385.91,195l1.47-3.36-2.55,1.06,1,2.34Zm3.59-1.43-1-2.4-.08,0L387,194.53Zm-2.4,4.52,1.55-3.34-2.57,1,.9,2.36Zm3.62-1.37-.92-2.42-.08,0-1.55,3.35Zm-2.47,4.48.82-1.65.78-1.66-2.59,1s.23.59.45,1.19l.42,1.19Zm3.64-1.31s-.22-.61-.43-1.22l-.46-1.21-.08,0-.78,1.66-.81,1.66Zm-2.53,4.43L391,201l-2.61.93.85,2.39ZM393,203l-.86-2.43-.08,0-1.63,3.29Zm-2.61,4.4,1.7-3.25-2.62.88.79,2.41Zm3.67-1.2-.81-2.45-.07,0-1.7,3.27Zm-2.67,4.37.89-1.62.86-1.62-2.63.85s.19.61.39,1.21.37,1.21.37,1.21Zm3.69-1.15-.38-1.23-.4-1.23-.07,0-.86,1.63-.88,1.61Zm-2.71,4.32,1.78-3.2-2.65.81.74,2.43Zm3.7-1.1-.76-2.46-.07,0-1.77,3.21Zm-2.88,4.45,1.93-3.34-2.67.78Zm.05.13h0Zm3.83-1.08-.79-2.73-.06,0-2,3.51Z" style="fill:#0b0b0b"></path><path d="M408.51,273.19l-3.95.56h0l-.88.13s-.12-.88-.35-2.42-.54-3.74-1-6.37c-.82-5.26-2-12.27-3.39-19.24s-2.86-13.93-4.11-19.07c-.64-2.57-1.18-4.71-1.59-6.2l-.63-2.35.85-.23.65,2.45.1,0,1.89-3.16,1.1-.31-1.88,3.17,2.65-.71-.67-2.48.85-.23s.23.87.64,2.39,1,3.71,1.63,6.34c1.28,5.27,2.78,12.27,4.17,19.32s2.6,14.13,3.42,19.45c.43,2.65.75,4.87,1,6.43l.36,2.44-.87.12Zm-13.42-49.56,1-1.56c.47-.79.95-1.57.95-1.57l-2.65.7.32,1.23c.16.61.31,1.23.31,1.23Zm3.77-1-.31-1.25-.34-1.24-.09,0-.95,1.58-1,1.57Zm-3,4.19,1.94-3.11-2.66.67.62,2.46Zm3.78-.92-.63-2.5-.09,0L397,226.59Zm-3,4.15,2-3.09-2.67.64.58,2.48Zm3.79-.87-.59-2.51-.1,0-2,3.1Zm-3.06,4.12,2-3.07-2.68.61.55,2.49Zm3.79-.84-.55-2.51-.1,0-2,3.08Zm-3.07,4.1,2-3.06-2.69.59.55,2.49Zm3.79-.82-.55-2.51-.09,0-2,3.07Zm-3.11,4.08,2.06-3-2.69.57.52,2.49Zm3.8-.79-.52-2.51-.09,0-2.06,3Zm-3.12,4.06,2.07-3-2.7.55.51,2.5Zm3.8-.77-.52-2.51h-.09l-2.07,3Zm-3.16,4,2.1-3-2.71.54.49,2.5Zm3.8-.74-.49-2.52h-.09l-2.1,3Zm-3.17,4,2.11-3-2.71.52.48,2.5Zm3.8-.71-.48-2.53-.09,0-2.1,3Zm-3.2,4,2.13-3-2.71.5.45,2.51Zm3.8-.69-.46-2.53-.08,0-2.13,3Zm-3.22,4,2.15-3-2.72.48.45,2.51Zm3.81-.66-.45-2.53h-.08l-2.14,3Zm-3.25,3.95,2.18-3-2.73.48.43,2.51Zm3.81-.64-.43-2.53h-.07l-2.17,3ZM403,262.81l2.19-2.95-2.73.45.21,1.26.2,1.26Zm3.81-.62-.2-1.27c-.11-.63-.21-1.26-.21-1.26h-.08l-2.19,2.95Zm-3.29,3.91,2.21-2.94-2.74.44.4,2.52Zm3.81-.59L407,263h-.07l-2.2,2.94Zm-3.31,3.89,2.23-2.93-2.74.43.38,2.52Zm3.82-.57-.38-2.54h-.07l-2.23,2.93Zm-3.45,4,2.36-3.06-2.75.4Zm0,.12h0Zm3.94-.56-.41-2.8h-.07l-2.47,3.21Z" style="fill:#0b0b0b"></path><path d="M413.85,330.25l-4,.19h0l-.88,0s0-.88-.13-2.44-.19-3.77-.36-6.43c-.31-5.33-.84-12.42-1.5-19.5s-1.42-14.14-2.11-19.43c-.31-2.65-.63-4.84-.83-6.39l-.33-2.42.87-.12.34,2.52H405l2.26-2.9,1.14-.16-2.27,2.9,2.72-.37-.35-2.53.87-.13s.12.89.34,2.45.52,3.78.84,6.45c.69,5.34,1.47,12.47,2.13,19.61s1.2,14.3,1.51,19.67c.18,2.69.28,4.93.37,6.49s.13,2.47.13,2.47l-.88,0Zm-8.37-50.69,2.28-2.88-2.72.37.34,2.53Zm3.86-.5-.35-2.54h-.1l-2.27,2.89Zm-3.44,3.81,2.31-2.87-2.73.36.32,2.53Zm3.86-.48-.32-2.55-.1,0-2.3,2.87Zm-3.45,3.79,2.31-2.85-2.73.34.32,2.53Zm3.86-.46-.32-2.55-.09,0-2.31,2.86Zm-3.48,3.78,2.34-2.85-2.73.33.28,2.53Zm3.86-.44-.29-2.55h-.09l-2.33,2.85Zm-3.48,3.75,2.34-2.83-2.74.31.29,2.53Zm3.86-.42-.29-2.55h-.09l-2.34,2.84Zm-3.52,3.74,2.37-2.82-2.74.29.26,2.54Zm3.86-.4-.26-2.55h-.09L408.55,296Zm-3.52,3.72,2.37-2.81-2.74.28.25,2.54Zm3.86-.38-.26-2.55h-.09l-2.37,2.81Zm-3.55,3.7,2.39-2.79-2.75.26.24,2.54Zm3.85-.36-.23-2.55h-.09l-2.39,2.79Zm-3.55,3.68,2.4-2.78-2.75.25.23,2.54Zm3.85-.33L412,303.2h-.09L409.5,306Zm-3.58,3.65,2.42-2.76-2.75.23.21,2.54Zm3.86-.31-.21-2.56h-.08l-2.42,2.77Zm-3.59,3.64,2.43-2.75-2.76.22.2,2.54Zm3.85-.29-.2-2.56h-.08L410,312.65Zm-3.61,3.62,2.44-2.74-2.75.2.18,2.55Zm3.85-.27-.18-2.56h-.08L410.28,316Zm-3.63,3.6,2.47-2.73-2.76.19.16,2.54Zm3.86-.26-.17-2.56H413l-2.46,2.73Zm-3.65,3.59,2.48-2.72-2.77.18.16,2.54Zm3.86-.24-.16-2.56h-.08l-2.47,2.72Zm-3.67,3.57,2.5-2.71-2.77.17.14,2.54Zm3.86-.22-.14-2.56h-.08l-2.49,2.7Zm-3.81,3.69,2.63-2.83-2.77.15Zm0,.12h0v0Zm4-.19-.15-2.83h-.07l-2.76,3Z" style="fill:#0b0b0b"></path><path d="M112.92,244c.08,62.88.08,124.88,0,187.47" style="fill:none;stroke:#263238;stroke-miterlimit:10;stroke-width:7px"></path><path d="M218.07,246.23c-.07,61.67-.07,123.67,0,185.21" style="fill:none;stroke:#263238;stroke-miterlimit:10;stroke-width:7px"></path><path d="M320.38,321.21c-.38,36.69-.38,73.69,0,110.21" style="fill:none;stroke:#263238;stroke-miterlimit:10;stroke-width:7px"></path><rect x="67.83" y="226.09" width="3.46" height="18.48" style="fill:#fff;stroke:#263238;stroke-linecap:round;stroke-miterlimit:10"></rect><polygon points="82.78 244.57 82.78 226.09 86.22 226.08 86.22 244.55 82.78 244.57" style="fill:#fff;stroke:#263238;stroke-linecap:round;stroke-miterlimit:10"></polygon><rect x="56.89" y="224.3" width="29.73" height="3.45" style="fill:#fff"></rect><line x1="86.62" y1="227.75" x2="56.89" y2="227.75" style="fill:#fff;stroke:#263238;stroke-linecap:round;stroke-miterlimit:10"></line><line x1="56.89" y1="224.3" x2="86.62" y2="224.3" style="fill:#fff;stroke:#263238;stroke-linecap:round;stroke-miterlimit:10"></line><rect x="56.89" y="244.06" width="29.73" height="3.45" style="fill:#fff"></rect><line x1="86.62" y1="247.51" x2="56.89" y2="247.51" style="fill:#fff;stroke:#263238;stroke-linecap:round;stroke-miterlimit:10"></line><line x1="56.89" y1="244.06" x2="86.62" y2="244.06" style="fill:#fff;stroke:#263238;stroke-linecap:round;stroke-miterlimit:10"></line><rect x="97.56" y="226.09" width="3.46" height="18.48" style="fill:#fff;stroke:#263238;stroke-linecap:round;stroke-miterlimit:10"></rect><polygon points="112.51 244.57 112.51 226.09 115.95 226.08 115.95 244.55 112.51 244.57" style="fill:#fff;stroke:#263238;stroke-linecap:round;stroke-miterlimit:10"></polygon><rect x="86.62" y="224.3" width="29.72" height="3.45" style="fill:#fff"></rect><line x1="116.35" y1="227.75" x2="86.62" y2="227.75" style="fill:#fff;stroke:#263238;stroke-linecap:round;stroke-miterlimit:10"></line><line x1="86.62" y1="224.3" x2="116.35" y2="224.3" style="fill:#fff;stroke:#263238;stroke-linecap:round;stroke-miterlimit:10"></line><rect x="86.62" y="244.06" width="29.72" height="3.45" style="fill:#fff"></rect><line x1="116.35" y1="247.51" x2="86.62" y2="247.51" style="fill:#fff;stroke:#263238;stroke-linecap:round;stroke-miterlimit:10"></line><line x1="86.62" y1="244.06" x2="116.35" y2="244.06" style="fill:#fff;stroke:#263238;stroke-linecap:round;stroke-miterlimit:10"></line><rect x="127.29" y="226.09" width="3.46" height="18.48" style="fill:#fff;stroke:#263238;stroke-linecap:round;stroke-miterlimit:10"></rect><polygon points="142.24 244.57 142.24 226.09 145.68 226.08 145.68 244.55 142.24 244.57" style="fill:#fff;stroke:#263238;stroke-linecap:round;stroke-miterlimit:10"></polygon><rect x="116.36" y="224.3" width="29.73" height="3.45" style="fill:#fff"></rect><line x1="146.08" y1="227.75" x2="116.36" y2="227.75" style="fill:#fff;stroke:#263238;stroke-linecap:round;stroke-miterlimit:10"></line><line x1="116.36" y1="224.3" x2="146.08" y2="224.3" style="fill:#fff;stroke:#263238;stroke-linecap:round;stroke-miterlimit:10"></line><rect x="116.36" y="244.06" width="29.73" height="3.45" style="fill:#fff"></rect><line x1="146.08" y1="247.51" x2="116.36" y2="247.51" style="fill:#fff;stroke:#263238;stroke-linecap:round;stroke-miterlimit:10"></line><line x1="116.36" y1="244.06" x2="146.08" y2="244.06" style="fill:#fff;stroke:#263238;stroke-linecap:round;stroke-miterlimit:10"></line><rect x="157.02" y="226.09" width="3.46" height="18.48" style="fill:#fff;stroke:#263238;stroke-linecap:round;stroke-miterlimit:10"></rect><polygon points="171.97 244.57 171.97 226.09 175.41 226.08 175.41 244.55 171.97 244.57" style="fill:#fff;stroke:#263238;stroke-linecap:round;stroke-miterlimit:10"></polygon><rect x="146.09" y="224.3" width="29.73" height="3.45" style="fill:#fff"></rect><line x1="175.81" y1="227.75" x2="146.09" y2="227.75" style="fill:#fff;stroke:#263238;stroke-linecap:round;stroke-miterlimit:10"></line><line x1="146.09" y1="224.3" x2="175.81" y2="224.3" style="fill:#fff;stroke:#263238;stroke-linecap:round;stroke-miterlimit:10"></line><rect x="146.09" y="244.06" width="29.73" height="3.45" style="fill:#fff"></rect><line x1="175.81" y1="247.51" x2="146.09" y2="247.51" style="fill:#fff;stroke:#263238;stroke-linecap:round;stroke-miterlimit:10"></line><line x1="146.09" y1="244.06" x2="175.81" y2="244.06" style="fill:#fff;stroke:#263238;stroke-linecap:round;stroke-miterlimit:10"></line><rect x="186.75" y="226.09" width="3.46" height="18.48" style="fill:#fff;stroke:#263238;stroke-linecap:round;stroke-miterlimit:10"></rect><polygon points="201.7 244.57 201.7 226.09 205.45 226.16 204.87 244.63 201.7 244.57" style="fill:#fff;stroke:#263238;stroke-linecap:round;stroke-miterlimit:10"></polygon><polygon points="205.83 227.84 201.83 227.75 198.11 227.75 190.68 227.75 175.82 227.75 175.82 224.3 190.68 224.3 198.11 224.3 201.84 224.3 205.95 224.4 205.83 227.84" style="fill:#fff"></polygon><polyline points="205.83 227.84 201.83 227.75 198.11 227.75 190.68 227.75 175.82 227.75" style="fill:#fff;stroke:#263238;stroke-linecap:round;stroke-miterlimit:10"></polyline><polyline points="175.82 224.3 190.68 224.3 198.11 224.3 201.84 224.3 205.95 224.4" style="fill:#fff;stroke:#263238;stroke-linecap:round;stroke-miterlimit:10"></polyline><polygon points="205.14 247.59 201.82 247.51 198.11 247.51 190.68 247.51 175.82 247.51 175.82 244.06 190.68 244.06 198.11 244.06 201.82 244.06 205.26 244.15 205.14 247.59" style="fill:#fff"></polygon><polyline points="205.14 247.59 201.82 247.51 198.11 247.51 190.68 247.51 175.82 247.51" style="fill:#fff;stroke:#263238;stroke-linecap:round;stroke-miterlimit:10"></polyline><polyline points="175.82 244.06 190.68 244.06 198.11 244.06 201.82 244.06 205.26 244.15" style="fill:#fff;stroke:#263238;stroke-linecap:round;stroke-miterlimit:10"></polyline><path d="M215.27,245.5l2.49-18.31c1.26.13,2.49.4,3.73.59L218.42,246C217.37,245.84,216.33,245.6,215.27,245.5Z" style="fill:#fff;stroke:#263238;stroke-linecap:round;stroke-miterlimit:10"></path><path d="M228.73,248.29l5-17.79c1.21.3,2.4.68,3.6,1.06l-5.54,17.63C230.76,248.87,229.76,248.54,228.73,248.29Z" style="fill:#fff;stroke:#263238;stroke-linecap:round;stroke-miterlimit:10"></path><path d="M237.22,233.28c-2.53-.85-5.12-1.48-7.69-2.18-1.29-.31-2.6-.58-3.9-.86-.65-.14-1.29-.3-1.95-.41l-2-.34a112.79,112.79,0,0,0-15.88-1.65l.12-3.44a116.48,116.48,0,0,1,16.35,1.69l2,.35c.67.12,1.34.28,2,.42,1.34.3,2.68.58,4,.89,2.65.72,5.32,1.37,7.91,2.25Z" style="fill:#fff"></path><path d="M237.22,233.28c-2.53-.85-5.12-1.48-7.69-2.18-1.29-.31-2.6-.58-3.9-.86-.65-.14-1.29-.3-1.95-.41l-2-.34a112.79,112.79,0,0,0-15.88-1.65" style="fill:none;stroke:#263238;stroke-linecap:round;stroke-miterlimit:10"></path><path d="M206,224.4a116.48,116.48,0,0,1,16.35,1.69l2,.35c.67.12,1.34.28,2,.42,1.34.3,2.68.58,4,.89,2.65.72,5.32,1.37,7.91,2.25" style="fill:#fff;stroke:#263238;stroke-linecap:round;stroke-miterlimit:10"></path><path d="M231.22,252.11c-2.09-.72-4.25-1.23-6.38-1.82l-3.24-.71c-.54-.11-1.08-.25-1.62-.35l-1.64-.27a94.07,94.07,0,0,0-13.19-1.37l.12-3.45a97.93,97.93,0,0,1,13.66,1.42l1.69.29c.57.1,1.12.24,1.68.35l3.36.74c2.21.61,4.44,1.14,6.61,1.89Z" style="fill:#fff"></path><path d="M231.22,252.11c-2.09-.72-4.25-1.23-6.38-1.82l-3.24-.71c-.54-.11-1.08-.25-1.62-.35l-1.64-.27a94.07,94.07,0,0,0-13.19-1.37" style="fill:none;stroke:#263238;stroke-linecap:round;stroke-miterlimit:10"></path><path d="M205.27,244.14a97.93,97.93,0,0,1,13.66,1.42l1.69.29c.57.1,1.12.24,1.68.35l3.36.74c2.21.61,4.44,1.14,6.61,1.89" style="fill:#fff;stroke:#263238;stroke-linecap:round;stroke-miterlimit:10"></path><path d="M241.54,252.84l7.34-17c1.16.49,2.32,1,3.44,1.55l-7.88,16.71C243.49,253.67,242.52,253.25,241.54,252.84Z" style="fill:#fff;stroke:#263238;stroke-linecap:round;stroke-miterlimit:10"></path><path d="M253.74,259.16l9.6-15.79c1.07.66,2.16,1.27,3.19,2l-10.09,15.48C255.57,260.22,254.64,259.71,253.74,259.16Z" style="fill:#fff;stroke:#263238;stroke-linecap:round;stroke-miterlimit:10"></path><path d="M266,247a112.27,112.27,0,0,0-13.9-7.83l-1.8-.87-1.84-.79c-1.22-.52-2.44-1.06-3.68-1.55-2.49-.93-5-1.9-7.53-2.66l1.05-3.29c2.63.79,5.18,1.79,7.75,2.74,1.28.51,2.53,1.06,3.79,1.6l1.89.81,1.85.89a117.07,117.07,0,0,1,14.32,8.07Z" style="fill:#fff"></path><path d="M266,247a112.27,112.27,0,0,0-13.9-7.83l-1.8-.87-1.84-.79c-1.22-.52-2.44-1.06-3.68-1.55-2.49-.93-5-1.9-7.53-2.66" style="fill:none;stroke:#263238;stroke-linecap:round;stroke-miterlimit:10"></path><path d="M238.27,230c2.63.79,5.18,1.79,7.75,2.74,1.28.51,2.53,1.06,3.79,1.6l1.89.81,1.85.89a117.07,117.07,0,0,1,14.32,8.07" style="fill:#fff;stroke:#263238;stroke-linecap:round;stroke-miterlimit:10"></path><path d="M255.12,263.5A93,93,0,0,0,243.56,257l-1.49-.73-1.53-.65c-1-.42-2-.88-3-1.29-2.08-.76-4.14-1.58-6.26-2.21l1-3.28c2.2.65,4.33,1.5,6.48,2.29,1.07.42,2.11.89,3.17,1.33l1.58.68,1.55.75a97.53,97.53,0,0,1,12,6.74Z" style="fill:#fff"></path><path d="M255.12,263.5A93,93,0,0,0,243.56,257l-1.49-.73-1.53-.65c-1-.42-2-.88-3-1.29-2.08-.76-4.14-1.58-6.26-2.21" style="fill:none;stroke:#263238;stroke-linecap:round;stroke-miterlimit:10"></path><path d="M232.27,248.83c2.2.65,4.33,1.5,6.48,2.29,1.07.42,2.11.89,3.17,1.33l1.58.68,1.55.75a97.53,97.53,0,0,1,12,6.74" style="fill:#fff;stroke:#263238;stroke-linecap:round;stroke-miterlimit:10"></path><path d="M264.85,267l11.65-14.34c1,.81,1.95,1.59,2.91,2.41L267.3,269C266.5,268.33,265.67,267.67,264.85,267Z" style="fill:#fff;stroke:#263238;stroke-linecap:round;stroke-miterlimit:10"></path><polygon points="275.39 276.59 288.14 263.22 290.64 265.58 277.89 278.96 275.39 276.59" style="fill:#fff;stroke:#263238;stroke-linecap:round;stroke-miterlimit:10"></polygon><path d="M289.78,267.07l-5.37-5.14-1.35-1.28c-.44-.43-.88-.85-1.39-1.31l-3-2.69c-1-.9-2.05-1.71-3.07-2.57s-2.05-1.69-3.13-2.47l-3.21-2.38L266,247l1.89-2.88,3.41,2.3,3.31,2.45c1.11.81,2.17,1.68,3.22,2.55s2.14,1.71,3.16,2.65l3.06,2.77c.53.47,1,.9,1.41,1.32l1.35,1.29,5.36,5.14Z" style="fill:#fff"></path><path d="M289.78,267.07l-5.37-5.14-1.35-1.28c-.44-.43-.88-.85-1.39-1.31l-3-2.69c-1-.9-2.05-1.71-3.07-2.57s-2.05-1.69-3.13-2.47l-3.21-2.38L266,247" style="fill:none;stroke:#263238;stroke-linecap:round;stroke-miterlimit:10"></path><path d="M267.87,244.11l3.41,2.3,3.31,2.45c1.11.81,2.17,1.68,3.22,2.55s2.14,1.71,3.16,2.65l3.06,2.77c.53.47,1,.9,1.41,1.32l1.35,1.29,5.36,5.14" style="fill:#fff;stroke:#263238;stroke-linecap:round;stroke-miterlimit:10"></path><path d="M276.14,281.37l-5.37-5.14L269.43,275c-.45-.43-.9-.87-1.29-1.21l-2.45-2.22c-.81-.75-1.7-1.41-2.55-2.13s-1.7-1.41-2.6-2.05l-2.66-2-2.76-1.85,1.9-2.88,2.85,1.92,2.76,2c.93.67,1.81,1.4,2.69,2.13s1.8,1.43,2.64,2.21l2.54,2.3c.41.36.86.79,1.31,1.22l1.34,1.29,5.37,5.14Z" style="fill:#fff"></path><path d="M276.14,281.37l-5.37-5.14L269.43,275c-.45-.43-.9-.87-1.29-1.21l-2.45-2.22c-.81-.75-1.7-1.41-2.55-2.13s-1.7-1.41-2.6-2.05l-2.66-2-2.76-1.85" style="fill:none;stroke:#263238;stroke-linecap:round;stroke-miterlimit:10"></path><path d="M257,260.62l2.85,1.92,2.76,2c.93.67,1.81,1.4,2.69,2.13s1.8,1.43,2.64,2.21l2.54,2.3c.41.36.86.79,1.31,1.22l1.34,1.29,5.37,5.14" style="fill:#fff;stroke:#263238;stroke-linecap:round;stroke-miterlimit:10"></path><rect x="284.44" y="279.58" width="18.48" height="3.46" transform="translate(-112.61 298.96) rotate(-46.26)" style="fill:#fff;stroke:#263238;stroke-linecap:round;stroke-miterlimit:10"></rect><polygon points="296.84 297.12 309.62 283.77 312.12 286.14 299.34 299.49 296.84 297.12" style="fill:#fff;stroke:#263238;stroke-linecap:round;stroke-miterlimit:10"></polygon><rect x="299.98" y="261.24" width="3.45" height="29.72" transform="translate(-106.37 303.15) rotate(-46.26)" style="fill:#fff"></rect><line x1="311.25" y1="287.62" x2="289.78" y2="267.07" style="fill:#fff;stroke:#263238;stroke-linecap:round;stroke-miterlimit:10"></line><line x1="292.16" y1="264.58" x2="313.63" y2="285.13" style="fill:#fff;stroke:#263238;stroke-linecap:round;stroke-miterlimit:10"></line><rect x="286.32" y="275.51" width="3.45" height="29.73" transform="translate(-120.9 297.69) rotate(-46.26)" style="fill:#fff"></rect><line x1="297.59" y1="301.9" x2="276.11" y2="281.34" style="fill:#fff;stroke:#263238;stroke-linecap:round;stroke-miterlimit:10"></line><line x1="278.5" y1="278.85" x2="299.97" y2="299.41" style="fill:#fff;stroke:#263238;stroke-linecap:round;stroke-miterlimit:10"></line><rect x="305.92" y="300.14" width="18.48" height="3.46" transform="translate(-120.83 320.82) rotate(-46.26)" style="fill:#fff;stroke:#263238;stroke-linecap:round;stroke-miterlimit:10"></rect><polygon points="318.32 317.68 331.1 304.33 333.6 306.7 320.82 320.05 318.32 317.68" style="fill:#fff;stroke:#263238;stroke-linecap:round;stroke-miterlimit:10"></polygon><rect x="321.46" y="281.8" width="3.45" height="29.73" transform="translate(-114.6 325.01) rotate(-46.25)" style="fill:#fff"></rect><line x1="332.73" y1="308.18" x2="311.26" y2="287.63" style="fill:#fff;stroke:#263238;stroke-linecap:round;stroke-miterlimit:10"></line><line x1="313.64" y1="285.14" x2="335.11" y2="305.69" style="fill:#fff;stroke:#263238;stroke-linecap:round;stroke-miterlimit:10"></line><rect x="307.8" y="296.07" width="3.45" height="29.73" transform="translate(-129.12 319.55) rotate(-46.26)" style="fill:#fff"></rect><line x1="319.07" y1="322.46" x2="297.59" y2="301.9" style="fill:#fff;stroke:#263238;stroke-linecap:round;stroke-miterlimit:10"></line><line x1="299.98" y1="299.41" x2="321.45" y2="319.97" style="fill:#fff;stroke:#263238;stroke-linecap:round;stroke-miterlimit:10"></line><rect x="327.4" y="320.7" width="18.48" height="3.46" transform="translate(-129.06 342.68) rotate(-46.26)" style="fill:#fff;stroke:#263238;stroke-linecap:round;stroke-miterlimit:10"></rect><polygon points="339.81 338.24 352.58 324.89 355.08 327.26 342.3 340.61 339.81 338.24" style="fill:#fff;stroke:#263238;stroke-linecap:round;stroke-miterlimit:10"></polygon><rect x="342.94" y="302.36" width="3.45" height="29.72" transform="translate(-122.82 346.88) rotate(-46.26)" style="fill:#fff"></rect><line x1="354.21" y1="328.74" x2="332.74" y2="308.19" style="fill:#fff;stroke:#263238;stroke-linecap:round;stroke-miterlimit:10"></line><line x1="335.12" y1="305.7" x2="356.59" y2="326.25" style="fill:#fff;stroke:#263238;stroke-linecap:round;stroke-miterlimit:10"></line><rect x="329.28" y="316.63" width="3.45" height="29.73" transform="translate(-137.35 341.41) rotate(-46.26)" style="fill:#fff"></rect><line x1="340.55" y1="343.02" x2="319.08" y2="322.46" style="fill:#fff;stroke:#263238;stroke-linecap:round;stroke-miterlimit:10"></line><line x1="321.46" y1="319.97" x2="342.93" y2="340.53" style="fill:#fff;stroke:#263238;stroke-linecap:round;stroke-miterlimit:10"></line><rect x="348.89" y="341.26" width="18.48" height="3.46" transform="translate(-137.28 364.55) rotate(-46.26)" style="fill:#fff;stroke:#263238;stroke-linecap:round;stroke-miterlimit:10"></rect><polygon points="361.29 358.8 374.06 345.45 376.56 347.82 363.78 361.17 361.29 358.8" style="fill:#fff;stroke:#263238;stroke-linecap:round;stroke-miterlimit:10"></polygon><rect x="364.42" y="322.92" width="3.45" height="29.73" transform="translate(-131.05 368.74) rotate(-46.26)" style="fill:#fff"></rect><line x1="375.69" y1="349.3" x2="354.22" y2="328.75" style="fill:#fff;stroke:#263238;stroke-linecap:round;stroke-miterlimit:10"></line><line x1="356.6" y1="326.26" x2="378.08" y2="346.81" style="fill:#fff;stroke:#263238;stroke-linecap:round;stroke-miterlimit:10"></line><rect x="350.76" y="337.19" width="3.45" height="29.73" transform="translate(-145.57 363.27) rotate(-46.26)" style="fill:#fff"></rect><line x1="362.03" y1="363.58" x2="340.56" y2="343.02" style="fill:#fff;stroke:#263238;stroke-linecap:round;stroke-miterlimit:10"></line><line x1="342.94" y1="340.53" x2="364.41" y2="361.09" style="fill:#fff;stroke:#263238;stroke-linecap:round;stroke-miterlimit:10"></line><rect x="370.37" y="361.82" width="18.48" height="3.46" transform="translate(-145.51 386.41) rotate(-46.26)" style="fill:#fff;stroke:#263238;stroke-linecap:round;stroke-miterlimit:10"></rect><polygon points="382.77 379.36 395.54 366.01 398.04 368.38 385.26 381.73 382.77 379.36" style="fill:#fff;stroke:#263238;stroke-linecap:round;stroke-miterlimit:10"></polygon><rect x="385.9" y="343.48" width="3.45" height="29.73" transform="translate(-139.27 390.6) rotate(-46.26)" style="fill:#fff"></rect><line x1="397.17" y1="369.86" x2="375.7" y2="349.31" style="fill:#fff;stroke:#263238;stroke-linecap:round;stroke-miterlimit:10"></line><line x1="378.08" y1="346.82" x2="399.56" y2="367.37" style="fill:#fff;stroke:#263238;stroke-linecap:round;stroke-miterlimit:10"></line><rect x="372.24" y="357.75" width="3.45" height="29.73" transform="translate(-153.8 385.13) rotate(-46.26)" style="fill:#fff"></rect><line x1="383.51" y1="384.14" x2="362.04" y2="363.58" style="fill:#fff;stroke:#263238;stroke-linecap:round;stroke-miterlimit:10"></line><line x1="364.42" y1="361.09" x2="385.9" y2="381.65" style="fill:#fff;stroke:#263238;stroke-linecap:round;stroke-miterlimit:10"></line><rect x="391.85" y="382.38" width="18.48" height="3.46" transform="translate(-153.73 408.27) rotate(-46.26)" style="fill:#fff;stroke:#263238;stroke-linecap:round;stroke-miterlimit:10"></rect><polygon points="404.25 399.92 417.02 386.57 419.52 388.94 406.74 402.29 404.25 399.92" style="fill:#fff;stroke:#263238;stroke-linecap:round;stroke-miterlimit:10"></polygon><rect x="407.39" y="364.04" width="3.45" height="29.73" transform="translate(-147.5 412.46) rotate(-46.26)" style="fill:#fff"></rect><line x1="418.65" y1="390.42" x2="397.18" y2="369.87" style="fill:#fff;stroke:#263238;stroke-linecap:round;stroke-miterlimit:10"></line><line x1="399.56" y1="367.38" x2="421.04" y2="387.93" style="fill:#fff;stroke:#263238;stroke-linecap:round;stroke-miterlimit:10"></line><rect x="393.72" y="378.31" width="3.45" height="29.73" transform="translate(-162.02 407) rotate(-46.26)" style="fill:#fff"></rect><line x1="404.99" y1="404.7" x2="383.52" y2="384.14" style="fill:#fff;stroke:#263238;stroke-linecap:round;stroke-miterlimit:10"></line><line x1="385.9" y1="381.65" x2="407.38" y2="402.21" style="fill:#fff;stroke:#263238;stroke-linecap:round;stroke-miterlimit:10"></line><rect x="413.33" y="402.94" width="18.48" height="3.46" transform="translate(-161.96 430.13) rotate(-46.26)" style="fill:#fff;stroke:#263238;stroke-linecap:round;stroke-miterlimit:10"></rect><polygon points="425.73 420.48 438.5 407.13 441 409.5 428.23 422.85 425.73 420.48" style="fill:#fff;stroke:#263238;stroke-linecap:round;stroke-miterlimit:10"></polygon><rect x="428.87" y="384.6" width="3.45" height="29.73" transform="translate(-155.72 434.33) rotate(-46.26)" style="fill:#fff"></rect><line x1="440.14" y1="410.98" x2="418.66" y2="390.43" style="fill:#fff;stroke:#263238;stroke-linecap:round;stroke-miterlimit:10"></line><line x1="421.04" y1="387.94" x2="442.52" y2="408.49" style="fill:#fff;stroke:#263238;stroke-linecap:round;stroke-miterlimit:10"></line><rect x="415.2" y="398.87" width="3.45" height="29.73" transform="translate(-170.25 428.86) rotate(-46.26)" style="fill:#fff"></rect><line x1="426.47" y1="425.26" x2="405" y2="404.7" style="fill:#fff;stroke:#263238;stroke-linecap:round;stroke-miterlimit:10"></line><line x1="407.38" y1="402.21" x2="428.86" y2="422.77" style="fill:#fff;stroke:#263238;stroke-linecap:round;stroke-miterlimit:10"></line><rect x="434.81" y="423.5" width="18.48" height="3.46" transform="translate(-170.18 452) rotate(-46.26)" style="fill:#fff;stroke:#263238;stroke-linecap:round;stroke-miterlimit:10"></rect><rect x="450.35" y="405.16" width="3.45" height="29.73" transform="translate(-163.95 456.19) rotate(-46.26)" style="fill:#fff"></rect><line x1="461.62" y1="431.54" x2="440.14" y2="410.99" style="fill:#fff;stroke:#263238;stroke-linecap:round;stroke-miterlimit:10"></line><line x1="442.53" y1="408.5" x2="464" y2="429.05" style="fill:#fff;stroke:#263238;stroke-linecap:round;stroke-miterlimit:10"></line><rect x="436.69" y="419.43" width="3.45" height="29.73" transform="translate(-178.47 450.72) rotate(-46.26)" style="fill:#fff"></rect><line x1="447.95" y1="445.82" x2="426.48" y2="425.26" style="fill:#fff;stroke:#263238;stroke-linecap:round;stroke-miterlimit:10"></line><line x1="428.86" y1="422.77" x2="450.34" y2="443.33" style="fill:#fff;stroke:#263238;stroke-linecap:round;stroke-miterlimit:10"></line></g></g><g id="freepik--Clouds--inject-20"><path d="M400.11,122.25c-5.27-2.88-7.67-.48-9.59-2.88s5.27-8.64-9.12-14.87c0,0-1-13.44-20.63-13.92s-14.4,13.44-19.68,16.8-6.71-1.92-12,1.44-2.88,10.07-7.2,11-10.08-4.32-15.35-1-5.28,6.24-7.68,6.24-7.2-1.92-10.08,0-6.23,4.32-6.23,4.32H404S405.39,125.13,400.11,122.25Z" style="fill:#fff"></path><path d="M332.9,110.06c-3.57-1.94-5.19-.32-6.48-1.94s3.56-5.83-6.15-10c0,0-.65-9.07-13.93-9.39s-9.72,9.06-13.28,11.33-4.53-1.29-8.09,1-2,6.8-4.86,7.45-6.8-2.91-10.36-.65-3.57,4.21-5.19,4.21-4.85-1.29-6.8,0-4.21,2.92-4.21,2.92h81.94S336.46,112,332.9,110.06Z" style="fill:#fff"></path><path d="M108.21,179.87c-3-1.62-4.33-.27-5.41-1.62s3-4.87-5.14-8.39c0,0-.54-7.58-11.64-7.85s-8.12,7.58-11.1,9.47-3.79-1.08-6.76.82-1.63,5.68-4.06,6.22-5.69-2.43-8.66-.54-3,3.52-4.33,3.52-4.06-1.08-5.69,0-3.51,2.43-3.51,2.43h68.47S111.19,181.5,108.21,179.87Z" style="fill:#FFC100"></path><path d="M108.21,179.87c-3-1.62-4.33-.27-5.41-1.62s3-4.87-5.14-8.39c0,0-.54-7.58-11.64-7.85s-8.12,7.58-11.1,9.47-3.79-1.08-6.76.82-1.63,5.68-4.06,6.22-5.69-2.43-8.66-.54-3,3.52-4.33,3.52-4.06-1.08-5.69,0-3.51,2.43-3.51,2.43h68.47S111.19,181.5,108.21,179.87Z" style="fill:#fff;opacity:0.8"></path></g><g id="freepik--Character--inject-20"><path d="M118.12,208.49s-5.4-46.28,2.27-53.38c2.38-2.2,6,.28,6.53,6.53s0,8.23,2,22.71a70.88,70.88,0,0,0,7.67,24.14Z" style="fill:#263238"></path><polyline points="140.61 168.97 140.61 158.15 148.49 158.38" style="fill:#fff;stroke:#263238;stroke-linecap:round;stroke-miterlimit:10"></polyline><path d="M121.85,116.12s-1-2.84.61-2.23,1.83,5.07,1.83,5.07-1.42.41-1.83-.2A9.4,9.4,0,0,1,121.85,116.12Z" style="fill:#fff;stroke:#263238;stroke-linecap:round;stroke-miterlimit:10"></path><path d="M124.29,116.73s-1-2.84.61-2.23,1.83,5.07,1.83,5.07-1.43.41-1.83-.2A9.05,9.05,0,0,1,124.29,116.73Z" style="fill:#fff;stroke:#263238;stroke-linecap:round;stroke-miterlimit:10"></path><path d="M143.33,152.13l-10.11-29.39a30.56,30.56,0,0,0-1.21-4.39c-.41-.6-3.66-2-4.67-2.23s-2.44-1.62-3.25-1.62-.82,1.82.61,2.43a7.34,7.34,0,0,1,2.43,1.83l-4.26-1s-2.24-4.07-2.85-3,1.83,5.48,3.25,6.09,6.7,3.66,6.7,3.66l7.44,27.3.77,18.7,7.63,2.49Z" style="fill:#fff;stroke:#263238;stroke-linecap:round;stroke-miterlimit:10"></path><path d="M137.7,176.64l-4.52-14.89a36.93,36.93,0,0,0,6.65-3.62,22.66,22.66,0,0,1,7.68-3.09s.9,8,1.41,10.54.17,9.28-1.1,13.75" style="fill:#FFC100;stroke:#263238;stroke-linecap:round;stroke-miterlimit:10"></path><path d="M145.81,160.91s-2.29,2.48-2.29,3.63.19,4,.19,4l-7.06-3.63a33.34,33.34,0,0,0-1.72-4.39c-1-1.91-2.86-2.86-1.14-6.11S146.39,157.28,145.81,160.91Z" style="fill:#fff;stroke:#263238;stroke-linecap:round;stroke-miterlimit:10"></path><path d="M133.89,159.39a56.39,56.39,0,0,1-6.88-10c-2.22-4.59,6-8.38,9-9.77s-3.43-1.64-1.06-3.79,7.74.43,8.76,2.75.6,2.8.6,2.8,2.18-2.84,2.68-.38-3.39,5.79-4.2,6.2-1,3.07-1.79,4.22-1.68.66-1.73,1.79a6.35,6.35,0,0,1-1.77,3.65A37.63,37.63,0,0,1,133.89,159.39Z" style="fill:#263238"></path><path d="M138.73,144.84s1.76,2.29,1,3.62-3.72,2-3.48,2.83a8.81,8.81,0,0,1,.58,2.07c.12,1.08,0,1.47-.57,1.27s-2-2.59-2.75-.53a4.27,4.27,0,0,0,1.57,5,2.11,2.11,0,0,0,2.56-.16s1.39,3,3,3.43,8.11-.23,8.12-1.53-3.84-14.35-5.73-16.42S138.73,144.84,138.73,144.84Z" style="fill:#fff;stroke:#263238;stroke-linecap:round;stroke-miterlimit:10"></path><path d="M143.71,168.55a39.65,39.65,0,0,1,7.83,9.54c4,6.49,8,20.61,8,20.61h-23.1s-4.58-21-5-27.29,2.67-6.3,5.53-5.92S143.71,168.55,143.71,168.55Z" style="fill:#fff;stroke:#263238;stroke-linecap:round;stroke-miterlimit:10"></path><path d="M138.75,168.74l-10.12-10.5L108.4,127.51l-.39.31a3.21,3.21,0,0,0,.82-1.55c.15-1-.74-5.07-.74-5.67s.14-1.93-.75-1.49-1.19.75-1.19,1.35v1.63l-3.43-4.32s-1.34,0-1.34,1,1.94,3.72,1.94,3.72l-.9.9-3.72-5.37a1.66,1.66,0,0,0-.89,1.34c0,.9,2.68,4.92,2.68,4.92l-.75.89-3.13-3.13s-1.19.45-.89,1.35S99.3,127,99.3,127l-3-.6s-.6.9-.15,1.35,4.76,1.19,4.76,1.19l4.47,1,.17-.13c.57,1.24,11.84,25.59,13.14,28.57s15.84,21,15.84,21" style="fill:#fff;stroke:#263238;stroke-linecap:round;stroke-miterlimit:10"></path><path d="M141.06,171.9c-1.81-4.29-2-4.74-4-6.41s-7.69-7.34-7.69-7.34a22.41,22.41,0,0,0-4,7.21,37,37,0,0,1-2.93,7l12.84,8.78s5.7,2.87,5.86-9.23" style="fill:#FFC100;stroke:#263238;stroke-linecap:round;stroke-miterlimit:10"></path><path d="M106.15,122.09a3.25,3.25,0,0,1-1,1.79c-.75.45-1.64.45-1.49,1.94a3.56,3.56,0,0,0,1.78,2.38" style="fill:none;stroke:#263238;stroke-linecap:round;stroke-miterlimit:10"></path><line x1="174.49" y1="196.26" x2="160.84" y2="173.29" style="fill:none;stroke:#263238;stroke-linecap:round;stroke-miterlimit:10;stroke-width:4px"></line><rect x="117.91" y="237.79" width="3.73" height="12.26" style="fill:#FFC100;stroke:#263238;stroke-linecap:round;stroke-miterlimit:10"></rect><rect x="147.5" y="237.79" width="3.73" height="12.26" style="fill:#FFC100;stroke:#263238;stroke-linecap:round;stroke-miterlimit:10"></rect><rect x="177.09" y="237.79" width="3.73" height="12.26" style="fill:#FFC100;stroke:#263238;stroke-linecap:round;stroke-miterlimit:10"></rect><rect x="206.68" y="237.79" width="3.73" height="12.26" style="fill:#FFC100;stroke:#263238;stroke-linecap:round;stroke-miterlimit:10"></rect><rect x="112.58" y="247.92" width="14.4" height="6.4" rx="2.36" style="fill:#263238;stroke:#263238;stroke-linecap:round;stroke-miterlimit:10"></rect><rect x="142.7" y="247.92" width="14.4" height="6.4" rx="2.36" style="fill:#263238;stroke:#263238;stroke-linecap:round;stroke-miterlimit:10"></rect><rect x="171.76" y="247.92" width="14.4" height="6.4" rx="2.36" style="fill:#263238;stroke:#263238;stroke-linecap:round;stroke-miterlimit:10"></rect><rect x="201.35" y="247.92" width="14.4" height="6.4" rx="2.36" style="fill:#263238;stroke:#263238;stroke-linecap:round;stroke-miterlimit:10"></rect><path d="M174.49,185.18v54.6H217S221.19,198.43,174.49,185.18Z" style="fill:#FFC100;stroke:#263238;stroke-linecap:round;stroke-miterlimit:10"></path><rect x="111.18" y="196.26" width="63.31" height="43.52" style="fill:#FFC100;stroke:#263238;stroke-linecap:round;stroke-miterlimit:10"></rect><path d="M146.16,219.72h-1.42v5.17h1.42c2.14,0,2.81-1,2.81-2.67S148.3,219.72,146.16,219.72Z" style="fill:#263238"></path><path d="M145.41,200.27a18.14,18.14,0,1,0,18.14,18.13A18.13,18.13,0,0,0,145.41,200.27Zm0,34.38a16.25,16.25,0,1,1,16.25-16.25A16.26,16.26,0,0,1,145.41,234.65Z" style="fill:#263238"></path><path d="M148.56,214.86c0-1.5-.66-2.24-2.55-2.24h-1.27v4.53H146C147.87,217.15,148.56,216.36,148.56,214.86Z" style="fill:#263238"></path><path d="M145.41,202.89a15.51,15.51,0,1,0,15.51,15.51A15.53,15.53,0,0,0,145.41,202.89Zm3.11,24.6V231h-2v-3.33h-1.83V231h-2v-3.33h-4.4V225h.87a.89.89,0,0,0,.73-.77V213.18a.88.88,0,0,0-.73-.76h-.87v-2.6h4.4v-3.36h2v3.36h1.83v-3.37h2V210c3.11.44,4.75,1.89,4.75,4.43,0,2.24-1.28,3.34-3.62,3.82v.1c2.73.41,4.23,1.73,4.23,4.15C153.88,225.36,151.87,227,148.52,227.49Z" style="fill:#263238"></path></g><g id="freepik--speed-lines--inject-20"><line x1="107" y1="197" x2="87" y2="197" style="fill:none;stroke:#263238;stroke-linecap:round;stroke-miterlimit:10"></line><line x1="100.73" y1="205" x2="75.67" y2="205" style="fill:none;stroke:#263238;stroke-linecap:round;stroke-miterlimit:10"></line><line x1="108.33" y1="205" x2="104.73" y2="205" style="fill:none;stroke:#263238;stroke-linecap:round;stroke-miterlimit:10"></line><line x1="77.79" y1="138.33" x2="73.67" y2="138.33" style="fill:none;stroke:#263238;stroke-linecap:round;stroke-miterlimit:10"></line><line x1="106.33" y1="138.33" x2="81.79" y2="138.33" style="fill:none;stroke:#263238;stroke-linecap:round;stroke-miterlimit:10"></line><line x1="106.33" y1="234.33" x2="73.67" y2="234.33" style="fill:none;stroke:#263238;stroke-linecap:round;stroke-miterlimit:10"></line></g></svg>