<svg xmlns="http://www.w3.org/2000/svg" xmlns:xlink="http://www.w3.org/1999/xlink" width="603" height="165" style="width:100%;height:100%;transform:translate3d(0,0,0)"><defs><clipPath id="u"><path d="M0 0h603v165H0z"/></clipPath><clipPath id="v"><path d="M0 0h603v165H0z"/></clipPath><clipPath id="a"><path fill="#fff" d="M103 33.25H25.5V136.5H103V33.25"/></clipPath><clipPath id="e"><path fill="#fff" d="M1098.5 493h-66v80h66v-80"/></clipPath><clipPath id="g"><path fill="#fff" d="M1151 493h-66v80h66v-80"/></clipPath><clipPath id="i"><path fill="#fff" d="M1204.5 493h-66v80h66v-80"/></clipPath><clipPath id="k"><path fill="#fff" d="M1255 493h-66v80h66v-80"/></clipPath><clipPath id="m"><path fill="#fff" d="M1295.5 493h-66v80h66v-80"/></clipPath><clipPath id="o"><path fill="#fff" d="M1335 493h-66v80h66v-80"/></clipPath><clipPath id="q"><path fill="#fff" d="M1386.5 493h-66v80h66v-80"/></clipPath><clipPath id="r"><path fill="#fff" d="M1428.5 493h-66v80h66v-80"/></clipPath><symbol id="c"><g clip-path="url(#a)" style="display:block"><path fill="#fff" d="M0 0h603v165H0z"/></g></symbol><symbol id="d"><g style="display:block"><path fill="#FFF" d="m102.806 42.403.084-28.94c-34.28-.1-62.13 27.59-62.23 61.88-.1 34.28 27.59 62.13 61.87 62.23l.084-28.94c-18.3-.053-33.067-14.906-33.014-33.206.053-18.3 14.906-33.077 33.206-33.024z"/><path fill="#FFF" d="m102.81 42.408.084-28.944c-34.29-.1-62.135 27.588-62.234 61.875-.1 34.288 27.587 62.137 61.874 62.237l.084-28.945c-18.301-.053-33.067-14.905-33.014-33.208.053-18.3 14.905-33.068 33.206-33.015z"/></g></symbol><symbol id="f"><g clip-path="url(#e)" style="display:block" transform="translate(-857.5 -457.5)"><path fill="#fff" d="M0 0h1920v1080H0z"/></g></symbol><symbol id="h"><g clip-path="url(#g)" style="display:block" transform="translate(-857.5 -457.5)"><path fill="#fff" d="M0 0h1920v1080H0z"/></g></symbol><symbol id="j"><g clip-path="url(#i)" style="display:block" transform="translate(-857.5 -457.5)"><path fill="#fff" d="M0 0h1920v1080H0z"/></g></symbol><symbol id="l"><g clip-path="url(#k)" style="display:block" transform="translate(-857.5 -457.5)"><path fill="#fff" d="M0 0h1920v1080H0z"/></g></symbol><symbol id="n"><g clip-path="url(#m)" style="display:block" transform="translate(-857.5 -457.5)"><path fill="#fff" d="M0 0h1920v1080H0z"/></g></symbol><symbol id="p"><g clip-path="url(#o)" style="display:block" transform="translate(-857.5 -457.5)"><path fill="#fff" d="M0 0h1920v1080H0z"/></g></symbol><symbol id="t"><g clip-path="url(#q)" style="display:block" transform="translate(-857.5 -457.5)"><path fill="#fff" d="M0 0h1920v1080H0z"/></g></symbol><symbol id="s"><g clip-path="url(#r)" style="display:block" transform="translate(-857.5 -457.5)"><path fill="#fff" d="M0 0h1920v1080H0z"/></g></symbol><mask id="F" mask-type="alpha"><g filter="url(#b)"><use xlink:href="#c"/></g></mask><mask id="E" mask-type="alpha"><use xlink:href="#d"/></mask><mask id="w" mask-type="alpha"><use xlink:href="#f"/></mask><mask id="x" mask-type="alpha"><use xlink:href="#h"/></mask><mask id="y" mask-type="alpha"><use xlink:href="#j"/></mask><mask id="z" mask-type="alpha"><use xlink:href="#l"/></mask><mask id="A" mask-type="alpha"><use xlink:href="#n"/></mask><mask id="B" mask-type="alpha"><use xlink:href="#p"/></mask><mask id="D" mask-type="alpha"><use xlink:href="#s"/></mask><mask id="C" mask-type="alpha"><use xlink:href="#t"/></mask><filter id="b" width="100%" height="100%" x="0%" y="0%" filterUnits="objectBoundingBox"><feComponentTransfer in="SourceGraphic"><feFuncA tableValues="1.0 0.0" type="table"/></feComponentTransfer></filter></defs><g clip-path="url(#u)"><g clip-path="url(#v)" style="display:block" transform="translate(0 5)"><g mask="url(#w)" style="display:block"><path fill="#FFF" d="M181.206 77.335c0-20.28 10.799-30.337 31.986-30.337 8.656 0 13.767 1.566 18.138 3.544l-3.709 10.141c-5.525-1.484-7.832-2.062-14.264-2.146-10.552-.163-17.888 5.771-17.888 17.972 0 12.202 7.75 18.715 19.538 18.715 5.687 0 9.069-.495 13.517-1.648l2.97 10.552c-5.606 2.061-10.469 2.802-17.971 2.802-21.351 0-32.317-10.47-32.317-29.595z"/></g><g mask="url(#x)" style="display:block"><path fill="#FFF" d="M261.588 59.939c-14.262 0-23.578 9.15-23.579 24.072.001 14.099 7.999 23.086 22.835 23.086 13.851 0 23.913-8.162 23.913-23.494 0-14.676-7.176-23.664-23.169-23.664zm9.151 23.661c0 7.667-1.811 12.531-9.233 12.531-7.336 0-9.644-4.698-9.644-12.446 0-7.339 2.059-12.862 9.478-12.862 7.588 0 9.4 5.522 9.4 12.777h-.001z"/></g><g mask="url(#y)" style="display:block"><path fill="#FFF" d="M289.213 61.095h14.757l7.584 24.402 2.308 8.986 2.558-8.986 8.405-24.402h14.43l-17.479 45.012h-16.324l-16.239-45.012z"/></g><g mask="url(#z)" style="display:block"><path fill="#FFF" d="M384.269 94.152V74.12c0-10.14-5.605-14.097-19.539-14.097-7.171 0-13.106 1.649-18.218 3.626l2.718 9.975c4.204-.988 8.986-1.977 13.441-1.977 5.602 0 8.159 1.154 8.159 5.11v2.804H363c-8.903 0-19.294 2.308-19.294 13.685 0 8.986 5.609 13.603 15.499 13.603 4.95 0 9.649-2.555 12.947-5.112 1.236 3.874 7.007 4.782 12.445 4.782 1.072 0 2.146 0 3.216-.082l.495-10.388c-2.553-.082-4.039-.412-4.039-1.897zm-22.176 2.063c-2.473 0-5.027-1.153-5.027-3.792 0-3.297 2.963-4.616 7.006-4.697l6.755-.166v7.088l.003.001c-2.966.823-6.099 1.566-8.737 1.566z"/></g><g mask="url(#A)" style="display:block"><path fill="#FFF" d="M398.535 43.946h13.768v62.164h-13.768V43.946z"/></g><g mask="url(#B)" style="display:block"><path fill="#FFF" d="M464.573 82.858c0-13.603-5.443-22.836-19.622-22.836-13.602 0-23.251 5.854-23.251 24.237 0 17.973 9.567 22.839 24.406 22.839 5.441 0 11.871-.744 16.9-2.23l-2.061-10.467c-4.7.824-9.811 1.813-12.865 1.813-7.169 0-12.772-1.319-12.69-8.409h29.183v-4.947zm-14.099-3.875H435.8c.249-5.936 3.298-9.232 7.997-9.232 4.451 0 6.842 3.791 6.677 9.232z"/></g><g mask="url(#C)" style="display:block"><path fill="#FFF" d="M473.976 61.095h13.766v4.534c2.722-2.061 8.658-5.69 14.677-5.69 14.096 0 15.085 7.75 15.085 17.973v28.197h-13.686V79.067c0-6.183-1.398-7.255-6.019-7.255-4.12 0-7.829 1.319-10.057 2.391v31.904h-13.766V61.095z"/></g><g mask="url(#D)" style="display:block"><path fill="#FFF" d="M531.027 92.092V71.235h-6.593v-10.14h6.593V51.86h13.685v9.235h13.935v10.14h-13.935V92.01c0 3.297 1.238 3.545 4.949 3.545 3.049 0 9.728-.907 9.728-.907l1.319 10.799c-3.217.907-7.585 1.567-10.883 1.567-8.657 0-18.798.412-18.798-14.922z"/></g><g mask="url(#E)" style="display:block"><path fill="#FFF" d="m102.806 42.403.084-28.94c-34.28-.1-62.13 27.59-62.23 61.88-.1 34.28 27.59 62.13 61.87 62.23l.084-28.94c-18.3-.053-33.067-14.906-33.014-33.206.053-18.3 14.906-33.077 33.206-33.024zm2.133 99.167c-36.82-.107-66.574-30.033-66.467-66.853.107-36.82 30.033-66.573 66.853-66.467-1.099 33.927-1.28 96.427-.386 133.32z"/><path fill="#FFF" d="m102.81 42.408.084-28.944c-34.29-.1-62.135 27.588-62.234 61.875-.1 34.288 27.587 62.137 61.874 62.237l.084-28.945c-18.301-.053-33.067-14.905-33.014-33.208.053-18.3 14.905-33.068 33.206-33.015z"/></g><g mask="url(#F)" style="display:block"><path fill="#FFF" d="M135.825 75.519c0 18.3-14.81 33.11-33.11 33.11v-66.22c18.3 0 33.11 14.81 33.11 33.11"/><path fill="#FFF" d="M135.827 75.52c0 18.303-14.809 33.113-33.112 33.113V42.409c18.301 0 33.112 14.808 33.112 33.11"/></g><path fill="#FF4B8A" d="M0-14.5c8.003 0 14.5 6.497 14.5 14.5S8.003 14.5 0 14.5-14.5 8.003-14.5 0-8.003-14.5 0-14.5z" style="display:block" transform="rotate(90 6.875 129.625)"/><path fill="#00D8D5" d="M0-14.5c8.003 0 14.5 6.497 14.5 14.5S8.003 14.5 0 14.5-14.5 8.003-14.5 0-8.003-14.5 0-14.5z" style="display:block" transform="rotate(90 54.25 82.625)"/></g></g></svg>