<svg xmlns="http://www.w3.org/2000/svg" width="269.286" height="171.729"><path d="M140.538 3.2q-8.483 12.152-23.673 18.17T81.5 27.393q-20.406 0-36.226-9.572A63.773 63.773 0 0 1 20.8-9.406q-8.655-17.654-8.884-40.926v-14.559q0-37.716 17.6-58.466t49.467-20.75q26.138 0 42.072 13.355t19.489 37.888h-22.016q-6.19-33.245-39.436-33.245-22.125 0-33.532 15.547T34.039-65.527v13.653q0 28.11 12.84 44.689T81.614 9.394a76.722 76.722 0 0 0 21.667-2.745 33.506 33.506 0 0 0 15.362-9.263v-37.4H80.009v-18h60.529Zm27.743-41.27q0-18.228 7.165-32.787a53.45 53.45 0 0 1 19.947-22.469 54.3 54.3 0 0 1 29.176-7.91q25.335 0 40.983 17.54T281.2-37.034v1.49q0 18.113-6.936 32.5a52.663 52.663 0 0 1-19.832 22.412q-12.9 8.025-29.634 8.025-25.22 0-40.869-17.54t-15.648-46.429Zm21.319 2.526q0 20.635 9.572 33.131t25.622 12.5q16.164 0 25.679-12.668t9.515-35.481q0-20.406-9.687-33.073t-25.732-12.672a30.454 30.454 0 0 0-25.335 12.5Q189.6-58.816 189.6-35.544Zm-2.751-96.583a12.543 12.543 0 0 1 3.153-8.7q3.153-3.514 9.343-3.514t9.4 3.514a12.412 12.412 0 0 1 3.21 8.7 12.2 12.2 0 0 1-3.21 8.638q-3.21 3.455-9.4 3.455t-9.343-3.455a12.333 12.333 0 0 1-3.15-8.638Zm49.295.229a12.754 12.754 0 0 1 3.153-8.753q3.153-3.571 9.343-3.571t9.4 3.571a12.62 12.62 0 0 1 3.21 8.754 12.2 12.2 0 0 1-3.21 8.638q-3.21 3.455-9.4 3.455t-9.343-3.455a12.333 12.333 0 0 1-3.15-8.641Z" data-name="Path 5" style="fill:#4a4f55" transform="translate(-11.914 144.336)"/></svg>