<svg xmlns="http://www.w3.org/2000/svg" width="110" height="42" fill="none" viewBox="0 0 125 48"><g clip-path="url(#a)"><path fill="url(#b)" d="M22.628 48a6.752 6.752 0 0 0 3.68-1.088 6.732 6.732 0 0 0 2.49-2.916.868.868 0 0 0-.8-1.219H17.263a.874.874 0 0 0-.87.797.868.868 0 0 0 .07.422 6.736 6.736 0 0 0 2.488 2.914A6.757 6.757 0 0 0 22.628 48Z"/><path fill="url(#c)" d="M39.097 36.296a3.165 3.165 0 0 1-2.919-1.947 3.146 3.146 0 0 1-.24-1.207V22.014c0-5.828-3.684-10.948-8.91-12.824a2.01 2.01 0 0 1-1.182-1.103 3.47 3.47 0 0 0-3.211-2.156 3.482 3.482 0 0 0-3.22 2.143A1.955 1.955 0 0 1 18.25 9.16c-2.608.906-4.87 2.6-6.47 4.846a13.253 13.253 0 0 0-2.46 7.69V33.14a3.148 3.148 0 0 1-.915 2.224 3.162 3.162 0 0 1-2.221.933 1.5 1.5 0 0 0-1.393.907 1.49 1.49 0 0 0-.12.57 1.476 1.476 0 0 0 1.48 1.478H39.09a1.482 1.482 0 0 0 1.48-1.477 1.476 1.476 0 0 0-1.473-1.478Z"/><path fill="url(#d)" d="M32.165 6.41a8.838 8.838 0 0 1 4.7 2.755 8.806 8.806 0 0 1 2.185 4.984.761.761 0 0 0 .83.688.764.764 0 0 0 .69-.828 10.27 10.27 0 0 0-2.552-5.864 10.307 10.307 0 0 0-5.532-3.225.712.712 0 0 0-.16-.017.766.766 0 0 0-.749.682.762.762 0 0 0 .588.825Z"/><path fill="url(#e)" d="M33.022 1.507a13.748 13.748 0 0 1 7.32 4.285 13.7 13.7 0 0 1 3.402 7.759.756.756 0 0 0 .829.687.761.761 0 0 0 .69-.828 15.137 15.137 0 0 0-3.76-8.64 15.193 15.193 0 0 0-8.15-4.753.764.764 0 0 0-.93.663.76.76 0 0 0 .609.827h-.01Z"/><path fill="url(#f)" d="M13.09 6.41a.763.763 0 0 0 .61-.827.76.76 0 0 0-.77-.68.726.726 0 0 0-.16.017 10.307 10.307 0 0 0-5.532 3.225 10.27 10.27 0 0 0-2.552 5.864.762.762 0 0 0 .175.556.74.74 0 0 0 .516.271.762.762 0 0 0 .832-.687A8.802 8.802 0 0 1 8.39 9.165a8.833 8.833 0 0 1 4.7-2.755Z"/><path fill="url(#g)" d="M12.234 1.507a.763.763 0 0 0 .61-.826.76.76 0 0 0-.77-.68.86.86 0 0 0-.158.016 15.193 15.193 0 0 0-8.15 4.753 15.138 15.138 0 0 0-3.761 8.64.75.75 0 0 0 .173.557.738.738 0 0 0 .515.27.764.764 0 0 0 .747-.4.757.757 0 0 0 .085-.286 13.7 13.7 0 0 1 3.397-7.756 13.748 13.748 0 0 1 7.312-4.288Z"/><path fill="#fff" d="M118.453 17.296a6.587 6.587 0 0 0-4.688 1.894V9.544a.113.113 0 0 0-.01-.047.113.113 0 0 0-.027-.04.124.124 0 0 0-.089-.035h-3.738a.12.12 0 0 0-.089.034.13.13 0 0 0-.028.04.13.13 0 0 0-.009.048v26.038a.13.13 0 0 0 .009.048.131.131 0 0 0 .028.04c.012.011.025.02.041.026a.12.12 0 0 0 .048.01h3.738a.124.124 0 0 0 .126-.124V25.013a3.692 3.692 0 0 1 3.455-3.693 3.63 3.63 0 0 1 3.832 3.59v10.672a.123.123 0 0 0 .123.123h3.702a.127.127 0 0 0 .048-.009.114.114 0 0 0 .04-.026.116.116 0 0 0 .028-.04.13.13 0 0 0 .01-.048V23.935a6.622 6.622 0 0 0-1.909-4.662 6.647 6.647 0 0 0-4.641-1.977ZM90.221 16.619h-3.72a.126.126 0 0 0-.127.123v11.573a3.512 3.512 0 0 1-2.316 3.276 3.531 3.531 0 0 1-1.4.209 3.586 3.586 0 0 1-2.395-1.126 3.571 3.571 0 0 1-.966-2.46V16.742a.126.126 0 0 0-.126-.123h-3.72a.124.124 0 0 0-.124.123v11.403a7.539 7.539 0 0 0 2.111 5.247 7.571 7.571 0 0 0 5.17 2.31 7.49 7.49 0 0 0 5.431-2.064 7.458 7.458 0 0 0 2.308-5.323V16.742a.125.125 0 0 0-.126-.123ZM65.02 9.456h-9.432c-.069 0-.123.024-.123.093l.032 26.102a.124.124 0 0 0 .037.088.122.122 0 0 0 .089.035h3.701a.123.123 0 0 0 .124-.123V25.14h5.589c4.325 0 7.714-3.447 7.714-7.843 0-4.395-3.406-7.84-7.732-7.84Zm-.067 11.773h-5.298a.247.247 0 0 1-.247-.247v-4.176a2.81 2.81 0 0 0-2.15-2.72.126.126 0 0 1-.095-.124v-.48a.128.128 0 0 1 .128-.128h7.721c2.011 0 3.56 1.458 3.813 3.447a3.845 3.845 0 0 1-2.238 4.086 3.866 3.866 0 0 1-1.622.337l-.012.005ZM92.867 31.541c.715 1.566 2.551 4.186 6.842 4.186 4.904 0 7.097-2.888 7.097-5.752 0-3.142-2.082-5.036-6.361-5.794-2.174-.364-3.105-1.051-3.105-2.293 0-1.157 1.034-1.935 2.572-1.935 1.386 0 2.554.776 2.976 1.97a.1.1 0 0 0 .056.06c.026.009.054.009.079 0l3.077-1.373a.098.098 0 0 0 .052-.052.102.102 0 0 0 0-.073c-.942-2.425-3.292-3.873-6.28-3.873-4.232 0-6.448 2.674-6.448 5.314 0 3.117 2.041 5 6.238 5.752 2.234.45 3.186 1.16 3.186 2.373 0 1.313-1.157 2.096-3.1 2.096a3.827 3.827 0 0 1-3.454-2.155.103.103 0 0 0-.091-.056.08.08 0 0 0-.04 0l-3.245 1.46a.095.095 0 0 0-.062.06.096.096 0 0 0 .01.085Z"/></g><defs><linearGradient id="b" x1="29.843" x2="21.086" y1="31.445" y2="46.364" gradientUnits="userSpaceOnUse"><stop stop-color="#FF94A6"/><stop offset=".32" stop-color="#E03DC1"/><stop offset="1" stop-color="#8247E5"/></linearGradient><linearGradient id="c" x1="34.075" x2="15.579" y1="14.935" y2="41.273" gradientUnits="userSpaceOnUse"><stop stop-color="#FF94A6"/><stop offset=".32" stop-color="#E03DC1"/><stop offset="1" stop-color="#8247E5"/></linearGradient><linearGradient id="d" x1="48.98" x2="4.036" y1="1.32" y2="31.215" gradientUnits="userSpaceOnUse"><stop stop-color="#FF94A6"/><stop offset=".32" stop-color="#E03DC1"/><stop offset="1" stop-color="#8247E5"/></linearGradient><linearGradient id="e" x1="48.558" x2="3.611" y1=".685" y2="30.58" gradientUnits="userSpaceOnUse"><stop stop-color="#FF94A6"/><stop offset=".32" stop-color="#E03DC1"/><stop offset="1" stop-color="#8247E5"/></linearGradient><linearGradient id="f" x1="40.578" x2="-4.369" y1="-11.312" y2="18.583" gradientUnits="userSpaceOnUse"><stop stop-color="#FF94A6"/><stop offset=".32" stop-color="#E03DC1"/><stop offset="1" stop-color="#8247E5"/></linearGradient><linearGradient id="g" x1="38.367" x2="-6.563" y1="-14.637" y2="15.251" gradientUnits="userSpaceOnUse"><stop stop-color="#FF94A6"/><stop offset=".32" stop-color="#E03DC1"/><stop offset="1" stop-color="#8247E5"/></linearGradient><clipPath id="a"><path fill="#fff" d="M0 0h125v48H0z"/></clipPath></defs></svg>